<?xml version="1.0"?>
<!-- Generated by SVGo -->
<svg width="79.802mm" height="65.122mm"
     viewBox="0.000 0.000 79.802 65.122"
     xmlns="http://www.w3.org/2000/svg" 
     xmlns:xlink="http://www.w3.org/1999/xlink">
<polygon points="72.262,5.001 72.461,5.008 72.659,5.032 72.854,5.071 73.046,5.125 73.234,5.194 73.415,5.277 73.589,5.375 73.754,5.486 73.911,5.609 74.058,5.744 74.193,5.891 74.316,6.048 74.427,6.213 74.525,6.387 74.608,6.568 74.677,6.756 74.731,6.948 74.770,7.143 74.794,7.341 74.801,7.541 74.802,57.582 74.794,57.781 74.770,57.979 74.731,58.174 74.677,58.366 74.608,58.554 74.525,58.735 74.427,58.909 74.316,59.074 74.193,59.231 74.058,59.378 73.911,59.513 73.754,59.636 73.589,59.747 73.415,59.845 73.234,59.928 73.046,59.997 72.854,60.051 72.659,60.090 72.461,60.114 72.262,60.122 7.541,60.122 7.341,60.114 7.143,60.090 6.948,60.051 6.756,59.997 6.568,59.928 6.387,59.845 6.213,59.747 6.048,59.636 5.891,59.513 5.744,59.378 5.609,59.231 5.486,59.074 5.375,58.909 5.277,58.735 5.194,58.554 5.125,58.366 5.071,58.174 5.032,57.979 5.008,57.781 5.000,57.581 5.001,7.541 5.008,7.341 5.032,7.143 5.071,6.948 5.125,6.756 5.194,6.568 5.277,6.387 5.375,6.213 5.486,6.048 5.609,5.891 5.744,5.744 5.891,5.609 6.048,5.486 6.213,5.375 6.387,5.277 6.568,5.194 6.756,5.125 6.948,5.071 7.143,5.032 7.341,5.008 7.541,5.000" style="fill:none;stroke-width:0.050000mm;stroke:black"/>
<polygon points="70.183,54.219 69.626,54.503 69.183,54.946 68.899,55.503 68.802,56.122 68.899,56.740 69.183,57.297 69.626,57.740 70.183,58.024 70.802,58.122 71.420,58.024 71.977,57.740 72.420,57.297 72.704,56.740 72.802,56.122 72.704,55.503 72.420,54.946 71.977,54.503 71.420,54.219 70.802,54.122" style="fill:none;stroke-width:0.050000mm;stroke:black"/>
<polygon points="8.382,54.219 7.825,54.503 7.382,54.946 7.098,55.503 7.000,56.122 7.098,56.740 7.382,57.297 7.825,57.740 8.382,58.024 9.001,58.122 9.619,58.024 10.176,57.740 10.619,57.297 10.903,56.740 11.001,56.122 10.903,55.503 10.619,54.946 10.176,54.503 9.619,54.219 9.001,54.122" style="fill:none;stroke-width:0.050000mm;stroke:black"/>
<polygon points="30.726,16.025 30.726,17.026 29.926,17.026 29.926,20.126 30.726,20.126 30.726,25.925 29.926,25.925 29.926,29.026 30.726,29.026 30.726,30.026 44.726,30.026 44.726,29.026 45.526,29.026 45.526,25.925 44.726,25.925 44.726,20.126 45.526,20.126 45.526,17.026 44.726,17.026 44.726,16.025" style="fill:none;stroke-width:0.050000mm;stroke:black"/>
<polygon points="49.776,16.025 49.776,17.026 48.976,17.026 48.976,20.126 49.776,20.126 49.776,25.925 48.976,25.925 48.976,29.026 49.776,29.026 49.776,30.026 63.776,30.026 63.776,29.026 64.576,29.026 64.576,25.925 63.776,25.925 63.776,20.126 64.576,20.126 64.576,17.026 63.776,17.026 63.776,16.025" style="fill:none;stroke-width:0.050000mm;stroke:black"/>
<polygon points="70.183,7.098 69.626,7.382 69.183,7.825 68.899,8.382 68.802,9.001 68.899,9.619 69.183,10.176 69.626,10.619 70.183,10.903 70.802,11.001 71.420,10.903 71.977,10.619 72.420,10.176 72.704,9.619 72.802,9.001 72.704,8.382 72.420,7.825 71.977,7.382 71.420,7.098 70.802,7.001" style="fill:none;stroke-width:0.050000mm;stroke:black"/>
<polygon points="8.382,7.098 7.825,7.382 7.382,7.825 7.098,8.382 7.000,9.001 7.098,9.619 7.382,10.176 7.825,10.619 8.382,10.903 9.001,11.001 9.619,10.903 10.176,10.619 10.619,10.176 10.903,9.619 11.001,9.001 10.903,8.382 10.619,7.825 10.176,7.382 9.619,7.098 9.001,7.001" style="fill:none;stroke-width:0.050000mm;stroke:black"/>
</svg>
