  0
SECTION
  2
HEADER
  9
$ACADVER
  1
AC1009
  9
$FILLMODE
 70
 0
  9
$SPLFRAME
 70
 1
  9
$EXTMIN
 10
0
 20
0
 30
0.0
  9
$EXTMAX
 10
1058.33
 20
1058.33
 30
0.0
  0
ENDSEC
  0
SECTION
  2
TABLES
  0
TABLE
  2
LAYER
 70
1
  0
LAYER
  2
0
 70
     0
 62
     7
  6
CONTINUOUS
  0
ENDTAB
  0
ENDSEC
  0
SECTION
  2
ENTITIES
  0
LINE
  8
0
 62
     0
 10
66.3568
 20
54.2325
 30
0.0
 11
66.5551
 21
54.2258
 31
0.0
  0
LINE
  8
0
 62
     0
 10
66.5551
 20
54.2258
 30
0.0
 11
66.7537
 21
54.2011
 31
0.0
  0
LINE
  8
0
 62
     0
 10
66.7537
 20
54.2011
 30
0.0
 11
66.9477
 21
54.1623
 31
0.0
  0
LINE
  8
0
 62
     0
 10
66.9477
 20
54.1623
 30
0.0
 11
67.1407
 21
54.1087
 31
0.0
  0
LINE
  8
0
 62
     0
 10
67.1407
 20
54.1087
 30
0.0
 11
67.3283
 21
54.0399
 31
0.0
  0
LINE
  8
0
 62
     0
 10
67.3283
 20
54.0399
 30
0.0
 11
67.51
 21
53.9556
 31
0.0
  0
LINE
  8
0
 62
     0
 10
67.51
 20
53.9556
 30
0.0
 11
67.6836
 21
53.8579
 31
0.0
  0
LINE
  8
0
 62
     0
 10
67.6836
 20
53.8579
 30
0.0
 11
67.849
 21
53.7475
 31
0.0
  0
LINE
  8
0
 62
     0
 10
67.849
 20
53.7475
 30
0.0
 11
68.005
 21
53.625
 31
0.0
  0
LINE
  8
0
 62
     0
 10
68.005
 20
53.625
 30
0.0
 11
68.1524
 21
53.4899
 31
0.0
  0
LINE
  8
0
 62
     0
 10
68.1524
 20
53.4899
 30
0.0
 11
68.2872
 21
53.3425
 31
0.0
  0
LINE
  8
0
 62
     0
 10
68.2872
 20
53.3425
 30
0.0
 11
68.41
 21
53.1855
 31
0.0
  0
LINE
  8
0
 62
     0
 10
68.41
 20
53.1855
 30
0.0
 11
68.5214
 21
53.02
 31
0.0
  0
LINE
  8
0
 62
     0
 10
68.5214
 20
53.02
 30
0.0
 11
68.6195
 21
52.8465
 31
0.0
  0
LINE
  8
0
 62
     0
 10
68.6195
 20
52.8465
 30
0.0
 11
68.7021
 21
52.6658
 31
0.0
  0
LINE
  8
0
 62
     0
 10
68.7021
 20
52.6658
 30
0.0
 11
68.7709
 21
52.4771
 31
0.0
  0
LINE
  8
0
 62
     0
 10
68.7709
 20
52.4771
 30
0.0
 11
68.8262
 21
52.2855
 31
0.0
  0
LINE
  8
0
 62
     0
 10
68.8262
 20
52.2855
 30
0.0
 11
68.8647
 21
52.0898
 31
0.0
  0
LINE
  8
0
 62
     0
 10
68.8647
 20
52.0898
 30
0.0
 11
68.888
 21
51.8929
 31
0.0
  0
LINE
  8
0
 62
     0
 10
68.888
 20
51.8929
 30
0.0
 11
68.895
 21
51.6929
 31
0.0
  0
LINE
  8
0
 62
     0
 10
68.895
 20
51.6929
 30
0.0
 11
68.8964
 21
2.67064
 31
0.0
  0
LINE
  8
0
 62
     0
 10
68.8964
 20
2.67064
 30
0.0
 11
68.888
 21
2.4722
 31
0.0
  0
LINE
  8
0
 62
     0
 10
68.888
 20
2.4722
 30
0.0
 11
68.8647
 21
2.27376
 31
0.0
  0
LINE
  8
0
 62
     0
 10
68.8647
 20
2.27376
 30
0.0
 11
68.8262
 21
2.07946
 31
0.0
  0
LINE
  8
0
 62
     0
 10
68.8262
 20
2.07946
 30
0.0
 11
68.7709
 21
1.88791
 31
0.0
  0
LINE
  8
0
 62
     0
 10
68.7709
 20
1.88791
 30
0.0
 11
68.7021
 21
1.69912
 31
0.0
  0
LINE
  8
0
 62
     0
 10
68.7021
 20
1.69912
 30
0.0
 11
68.6195
 21
1.5186
 31
0.0
  0
LINE
  8
0
 62
     0
 10
68.6195
 20
1.5186
 30
0.0
 11
68.5214
 21
1.34497
 31
0.0
  0
LINE
  8
0
 62
     0
 10
68.5214
 20
1.34497
 30
0.0
 11
68.41
 21
1.1796
 31
0.0
  0
LINE
  8
0
 62
     0
 10
68.41
 20
1.1796
 30
0.0
 11
68.2872
 21
1.02251
 31
0.0
  0
LINE
  8
0
 62
     0
 10
68.2872
 20
1.02251
 30
0.0
 11
68.1524
 21
0.875055
 31
0.0
  0
LINE
  8
0
 62
     0
 10
68.1524
 20
0.875055
 30
0.0
 11
68.005
 21
0.740008
 31
0.0
  0
LINE
  8
0
 62
     0
 10
68.005
 20
0.740008
 30
0.0
 11
67.849
 21
0.617361
 31
0.0
  0
LINE
  8
0
 62
     0
 10
67.849
 20
0.617361
 30
0.0
 11
67.6836
 21
0.505739
 31
0.0
  0
LINE
  8
0
 62
     0
 10
67.6836
 20
0.505739
 30
0.0
 11
67.51
 21
0.407899
 31
0.0
  0
LINE
  8
0
 62
     0
 10
67.51
 20
0.407899
 30
0.0
 11
67.3283
 21
0.325217
 31
0.0
  0
LINE
  8
0
 62
     0
 10
67.3283
 20
0.325217
 30
0.0
 11
67.1407
 21
0.256315
 31
0.0
  0
LINE
  8
0
 62
     0
 10
67.1407
 20
0.256315
 30
0.0
 11
66.9477
 21
0.202572
 31
0.0
  0
LINE
  8
0
 62
     0
 10
66.9477
 20
0.202572
 30
0.0
 11
66.7537
 21
0.162609
 31
0.0
  0
LINE
  8
0
 62
     0
 10
66.7537
 20
0.162609
 30
0.0
 11
66.5551
 21
0.139182
 31
0.0
  0
LINE
  8
0
 62
     0
 10
66.5551
 20
0.139182
 30
0.0
 11
66.3568
 21
0.130914
 31
0.0
  0
LINE
  8
0
 62
     0
 10
66.3568
 20
0.130914
 30
0.0
 11
2.63481
 21
0.130914
 31
0.0
  0
LINE
  8
0
 62
     0
 10
2.63481
 20
0.130914
 30
0.0
 11
2.43499
 21
0.139182
 31
0.0
  0
LINE
  8
0
 62
     0
 10
2.43499
 20
0.139182
 30
0.0
 11
2.23793
 21
0.162609
 31
0.0
  0
LINE
  8
0
 62
     0
 10
2.23793
 20
0.162609
 30
0.0
 11
2.04225
 21
0.202572
 31
0.0
  0
LINE
  8
0
 62
     0
 10
2.04225
 20
0.202572
 30
0.0
 11
1.8507
 21
0.256315
 31
0.0
  0
LINE
  8
0
 62
     0
 10
1.8507
 20
0.256315
 30
0.0
 11
1.66191
 21
0.325217
 31
0.0
  0
LINE
  8
0
 62
     0
 10
1.66191
 20
0.325217
 30
0.0
 11
1.48139
 21
0.407899
 31
0.0
  0
LINE
  8
0
 62
     0
 10
1.48139
 20
0.407899
 30
0.0
 11
1.30776
 21
0.505739
 31
0.0
  0
LINE
  8
0
 62
     0
 10
1.30776
 20
0.505739
 30
0.0
 11
1.14239
 21
0.617361
 31
0.0
  0
LINE
  8
0
 62
     0
 10
1.14239
 20
0.617361
 30
0.0
 11
0.985298
 21
0.740008
 31
0.0
  0
LINE
  8
0
 62
     0
 10
0.985298
 20
0.740008
 30
0.0
 11
0.837847
 21
0.875055
 31
0.0
  0
LINE
  8
0
 62
     0
 10
0.837847
 20
0.875055
 30
0.0
 11
0.7028
 21
1.02251
 31
0.0
  0
LINE
  8
0
 62
     0
 10
0.7028
 20
1.02251
 30
0.0
 11
0.580154
 21
1.1796
 31
0.0
  0
LINE
  8
0
 62
     0
 10
0.580154
 20
1.1796
 30
0.0
 11
0.469911
 21
1.34497
 31
0.0
  0
LINE
  8
0
 62
     0
 10
0.469911
 20
1.34497
 30
0.0
 11
0.372071
 21
1.5186
 31
0.0
  0
LINE
  8
0
 62
     0
 10
0.372071
 20
1.5186
 30
0.0
 11
0.28801
 21
1.69912
 31
0.0
  0
LINE
  8
0
 62
     0
 10
0.28801
 20
1.69912
 30
0.0
 11
0.219108
 21
1.88791
 31
0.0
  0
LINE
  8
0
 62
     0
 10
0.219108
 20
1.88791
 30
0.0
 11
0.165365
 21
2.07946
 31
0.0
  0
LINE
  8
0
 62
     0
 10
0.165365
 20
2.07946
 30
0.0
 11
0.12678
 21
2.27376
 31
0.0
  0
LINE
  8
0
 62
     0
 10
0.12678
 20
2.27376
 30
0.0
 11
0.101975
 21
2.4722
 31
0.0
  0
LINE
  8
0
 62
     0
 10
0.101975
 20
2.4722
 30
0.0
 11
0.0950846
 21
2.67202
 31
0.0
  0
LINE
  8
0
 62
     0
 10
0.0950846
 20
2.67202
 30
0.0
 11
0.0950846
 21
51.6929
 31
0.0
  0
LINE
  8
0
 62
     0
 10
0.0950846
 20
51.6929
 30
0.0
 11
0.101975
 21
51.8929
 31
0.0
  0
LINE
  8
0
 62
     0
 10
0.101975
 20
51.8929
 30
0.0
 11
0.12678
 21
52.0898
 31
0.0
  0
LINE
  8
0
 62
     0
 10
0.12678
 20
52.0898
 30
0.0
 11
0.165365
 21
52.2855
 31
0.0
  0
LINE
  8
0
 62
     0
 10
0.165365
 20
52.2855
 30
0.0
 11
0.219108
 21
52.4771
 31
0.0
  0
LINE
  8
0
 62
     0
 10
0.219108
 20
52.4771
 30
0.0
 11
0.28801
 21
52.6658
 31
0.0
  0
LINE
  8
0
 62
     0
 10
0.28801
 20
52.6658
 30
0.0
 11
0.372071
 21
52.8465
 31
0.0
  0
LINE
  8
0
 62
     0
 10
0.372071
 20
52.8465
 30
0.0
 11
0.469911
 21
53.02
 31
0.0
  0
LINE
  8
0
 62
     0
 10
0.469911
 20
53.02
 30
0.0
 11
0.580154
 21
53.1855
 31
0.0
  0
LINE
  8
0
 62
     0
 10
0.580154
 20
53.1855
 30
0.0
 11
0.7028
 21
53.3425
 31
0.0
  0
LINE
  8
0
 62
     0
 10
0.7028
 20
53.3425
 30
0.0
 11
0.837847
 21
53.4899
 31
0.0
  0
LINE
  8
0
 62
     0
 10
0.837847
 20
53.4899
 30
0.0
 11
0.985298
 21
53.625
 31
0.0
  0
LINE
  8
0
 62
     0
 10
0.985298
 20
53.625
 30
0.0
 11
1.14239
 21
53.7475
 31
0.0
  0
LINE
  8
0
 62
     0
 10
1.14239
 20
53.7475
 30
0.0
 11
1.30776
 21
53.8579
 31
0.0
  0
LINE
  8
0
 62
     0
 10
1.30776
 20
53.8579
 30
0.0
 11
1.48139
 21
53.9556
 31
0.0
  0
LINE
  8
0
 62
     0
 10
1.48139
 20
53.9556
 30
0.0
 11
1.66191
 21
54.0399
 31
0.0
  0
LINE
  8
0
 62
     0
 10
1.66191
 20
54.0399
 30
0.0
 11
1.8507
 21
54.1087
 31
0.0
  0
LINE
  8
0
 62
     0
 10
1.8507
 20
54.1087
 30
0.0
 11
2.04225
 21
54.1623
 31
0.0
  0
LINE
  8
0
 62
     0
 10
2.04225
 20
54.1623
 30
0.0
 11
2.23793
 21
54.2011
 31
0.0
  0
LINE
  8
0
 62
     0
 10
2.23793
 20
54.2011
 30
0.0
 11
2.43499
 21
54.2258
 31
0.0
  0
LINE
  8
0
 62
     0
 10
2.43499
 20
54.2258
 30
0.0
 11
2.63481
 21
54.2325
 31
0.0
  0
LINE
  8
0
 62
     0
 10
2.63481
 20
54.2325
 30
0.0
 11
66.3568
 21
54.2325
 31
0.0
  0
LINE
  8
0
 62
     0
 10
64.2772
 20
6.03444
 30
0.0
 11
63.7205
 21
5.75056
 31
0.0
  0
LINE
  8
0
 62
     0
 10
63.7205
 20
5.75056
 30
0.0
 11
63.2781
 21
5.30684
 31
0.0
  0
LINE
  8
0
 62
     0
 10
63.2781
 20
5.30684
 30
0.0
 11
62.9931
 21
4.75008
 31
0.0
  0
LINE
  8
0
 62
     0
 10
62.9931
 20
4.75008
 30
0.0
 11
62.8964
 21
4.13135
 31
0.0
  0
LINE
  8
0
 62
     0
 10
62.8964
 20
4.13135
 30
0.0
 11
62.9931
 21
3.51262
 31
0.0
  0
LINE
  8
0
 62
     0
 10
62.9931
 20
3.51262
 30
0.0
 11
63.2781
 21
2.95589
 31
0.0
  0
LINE
  8
0
 62
     0
 10
63.2781
 20
2.95589
 30
0.0
 11
63.7205
 21
2.51354
 31
0.0
  0
LINE
  8
0
 62
     0
 10
63.7205
 20
2.51354
 30
0.0
 11
64.2772
 21
2.22966
 31
0.0
  0
LINE
  8
0
 62
     0
 10
64.2772
 20
2.22966
 30
0.0
 11
64.8959
 21
2.13183
 31
0.0
  0
LINE
  8
0
 62
     0
 10
64.8959
 20
2.13183
 30
0.0
 11
65.5147
 21
2.22966
 31
0.0
  0
LINE
  8
0
 62
     0
 10
65.5147
 20
2.22966
 30
0.0
 11
66.0714
 21
2.51354
 31
0.0
  0
LINE
  8
0
 62
     0
 10
66.0714
 20
2.51354
 30
0.0
 11
66.5152
 21
2.95589
 31
0.0
  0
LINE
  8
0
 62
     0
 10
66.5152
 20
2.95589
 30
0.0
 11
66.7992
 21
3.51262
 31
0.0
  0
LINE
  8
0
 62
     0
 10
66.7992
 20
3.51262
 30
0.0
 11
66.8969
 21
4.13135
 31
0.0
  0
LINE
  8
0
 62
     0
 10
66.8969
 20
4.13135
 30
0.0
 11
66.7992
 21
4.75008
 31
0.0
  0
LINE
  8
0
 62
     0
 10
66.7992
 20
4.75008
 30
0.0
 11
66.5152
 21
5.30684
 31
0.0
  0
LINE
  8
0
 62
     0
 10
66.5152
 20
5.30684
 30
0.0
 11
66.0714
 21
5.75056
 31
0.0
  0
LINE
  8
0
 62
     0
 10
66.0714
 20
5.75056
 30
0.0
 11
65.5147
 21
6.03444
 31
0.0
  0
LINE
  8
0
 62
     0
 10
65.5147
 20
6.03444
 30
0.0
 11
64.8959
 21
6.13089
 31
0.0
  0
LINE
  8
0
 62
     0
 10
64.8959
 20
6.13089
 30
0.0
 11
64.2772
 21
6.03444
 31
0.0
  0
LINE
  8
0
 62
     0
 10
3.47679
 20
6.03444
 30
0.0
 11
2.92006
 21
5.75056
 31
0.0
  0
LINE
  8
0
 62
     0
 10
2.92006
 20
5.75056
 30
0.0
 11
2.47633
 21
5.30684
 31
0.0
  0
LINE
  8
0
 62
     0
 10
2.47633
 20
5.30684
 30
0.0
 11
2.19246
 21
4.75008
 31
0.0
  0
LINE
  8
0
 62
     0
 10
2.19246
 20
4.75008
 30
0.0
 11
2.09462
 21
4.13135
 31
0.0
  0
LINE
  8
0
 62
     0
 10
2.09462
 20
4.13135
 30
0.0
 11
2.19246
 21
3.51262
 31
0.0
  0
LINE
  8
0
 62
     0
 10
2.19246
 20
3.51262
 30
0.0
 11
2.47633
 21
2.95589
 31
0.0
  0
LINE
  8
0
 62
     0
 10
2.47633
 20
2.95589
 30
0.0
 11
2.92006
 21
2.51354
 31
0.0
  0
LINE
  8
0
 62
     0
 10
2.92006
 20
2.51354
 30
0.0
 11
3.47679
 21
2.22966
 31
0.0
  0
LINE
  8
0
 62
     0
 10
3.47679
 20
2.22966
 30
0.0
 11
4.09554
 21
2.13183
 31
0.0
  0
LINE
  8
0
 62
     0
 10
4.09554
 20
2.13183
 30
0.0
 11
4.7129
 21
2.22966
 31
0.0
  0
LINE
  8
0
 62
     0
 10
4.7129
 20
2.22966
 30
0.0
 11
5.27099
 21
2.51354
 31
0.0
  0
LINE
  8
0
 62
     0
 10
5.27099
 20
2.51354
 30
0.0
 11
5.71334
 21
2.95589
 31
0.0
  0
LINE
  8
0
 62
     0
 10
5.71334
 20
2.95589
 30
0.0
 11
5.99722
 21
3.51262
 31
0.0
  0
LINE
  8
0
 62
     0
 10
5.99722
 20
3.51262
 30
0.0
 11
6.09505
 21
4.13135
 31
0.0
  0
LINE
  8
0
 62
     0
 10
6.09505
 20
4.13135
 30
0.0
 11
5.99722
 21
4.75008
 31
0.0
  0
LINE
  8
0
 62
     0
 10
5.99722
 20
4.75008
 30
0.0
 11
5.71334
 21
5.30684
 31
0.0
  0
LINE
  8
0
 62
     0
 10
5.71334
 20
5.30684
 30
0.0
 11
5.27099
 21
5.75056
 31
0.0
  0
LINE
  8
0
 62
     0
 10
5.27099
 20
5.75056
 30
0.0
 11
4.7129
 21
6.03444
 31
0.0
  0
LINE
  8
0
 62
     0
 10
4.7129
 20
6.03444
 30
0.0
 11
4.09554
 21
6.13089
 31
0.0
  0
LINE
  8
0
 62
     0
 10
4.09554
 20
6.13089
 30
0.0
 11
3.47679
 21
6.03444
 31
0.0
  0
LINE
  8
0
 62
     0
 10
25.3201
 20
43.7085
 30
0.0
 11
25.3201
 21
42.7069
 31
0.0
  0
LINE
  8
0
 62
     0
 10
25.3201
 20
42.7069
 30
0.0
 11
24.5208
 21
42.7069
 31
0.0
  0
LINE
  8
0
 62
     0
 10
24.5208
 20
42.7069
 30
0.0
 11
24.5208
 21
39.6074
 31
0.0
  0
LINE
  8
0
 62
     0
 10
24.5208
 20
39.6074
 30
0.0
 11
25.3201
 21
39.6074
 31
0.0
  0
LINE
  8
0
 62
     0
 10
25.3201
 20
39.6074
 30
0.0
 11
25.3201
 21
33.8088
 31
0.0
  0
LINE
  8
0
 62
     0
 10
25.3201
 20
33.8088
 30
0.0
 11
24.5208
 21
33.8088
 31
0.0
  0
LINE
  8
0
 62
     0
 10
24.5208
 20
33.8088
 30
0.0
 11
24.5208
 21
30.7068
 31
0.0
  0
LINE
  8
0
 62
     0
 10
24.5208
 20
30.7068
 30
0.0
 11
25.3201
 21
30.7068
 31
0.0
  0
LINE
  8
0
 62
     0
 10
25.3201
 20
30.7068
 30
0.0
 11
25.3201
 21
29.7077
 31
0.0
  0
LINE
  8
0
 62
     0
 10
25.3201
 20
29.7077
 30
0.0
 11
39.321
 21
29.7077
 31
0.0
  0
LINE
  8
0
 62
     0
 10
39.321
 20
29.7077
 30
0.0
 11
39.321
 21
30.7068
 31
0.0
  0
LINE
  8
0
 62
     0
 10
39.321
 20
30.7068
 30
0.0
 11
40.1204
 21
30.7068
 31
0.0
  0
LINE
  8
0
 62
     0
 10
40.1204
 20
30.7068
 30
0.0
 11
40.1204
 21
33.8088
 31
0.0
  0
LINE
  8
0
 62
     0
 10
40.1204
 20
33.8088
 30
0.0
 11
39.321
 21
33.8088
 31
0.0
  0
LINE
  8
0
 62
     0
 10
39.321
 20
33.8088
 30
0.0
 11
39.321
 21
39.6074
 31
0.0
  0
LINE
  8
0
 62
     0
 10
39.321
 20
39.6074
 30
0.0
 11
40.1204
 21
39.6074
 31
0.0
  0
LINE
  8
0
 62
     0
 10
40.1204
 20
39.6074
 30
0.0
 11
40.1204
 21
42.7069
 31
0.0
  0
LINE
  8
0
 62
     0
 10
40.1204
 20
42.7069
 30
0.0
 11
39.321
 21
42.7069
 31
0.0
  0
LINE
  8
0
 62
     0
 10
39.321
 20
42.7069
 30
0.0
 11
39.321
 21
43.7085
 31
0.0
  0
LINE
  8
0
 62
     0
 10
39.321
 20
43.7085
 30
0.0
 11
25.3201
 21
43.7085
 31
0.0
  0
LINE
  8
0
 62
     0
 10
44.3699
 20
43.7085
 30
0.0
 11
44.3699
 21
42.7069
 31
0.0
  0
LINE
  8
0
 62
     0
 10
44.3699
 20
42.7069
 30
0.0
 11
43.5709
 21
42.7069
 31
0.0
  0
LINE
  8
0
 62
     0
 10
43.5709
 20
42.7069
 30
0.0
 11
43.5709
 21
39.6074
 31
0.0
  0
LINE
  8
0
 62
     0
 10
43.5709
 20
39.6074
 30
0.0
 11
44.3699
 21
39.6074
 31
0.0
  0
LINE
  8
0
 62
     0
 10
44.3699
 20
39.6074
 30
0.0
 11
44.3699
 21
33.8088
 31
0.0
  0
LINE
  8
0
 62
     0
 10
44.3699
 20
33.8088
 30
0.0
 11
43.5709
 21
33.8088
 31
0.0
  0
LINE
  8
0
 62
     0
 10
43.5709
 20
33.8088
 30
0.0
 11
43.5709
 21
30.7068
 31
0.0
  0
LINE
  8
0
 62
     0
 10
43.5709
 20
30.7068
 30
0.0
 11
44.3699
 21
30.7068
 31
0.0
  0
LINE
  8
0
 62
     0
 10
44.3699
 20
30.7068
 30
0.0
 11
44.3699
 21
29.7077
 31
0.0
  0
LINE
  8
0
 62
     0
 10
44.3699
 20
29.7077
 30
0.0
 11
58.371
 21
29.7077
 31
0.0
  0
LINE
  8
0
 62
     0
 10
58.371
 20
29.7077
 30
0.0
 11
58.371
 21
30.7068
 31
0.0
  0
LINE
  8
0
 62
     0
 10
58.371
 20
30.7068
 30
0.0
 11
59.1704
 21
30.7068
 31
0.0
  0
LINE
  8
0
 62
     0
 10
59.1704
 20
30.7068
 30
0.0
 11
59.1704
 21
33.8088
 31
0.0
  0
LINE
  8
0
 62
     0
 10
59.1704
 20
33.8088
 30
0.0
 11
58.371
 21
33.8088
 31
0.0
  0
LINE
  8
0
 62
     0
 10
58.371
 20
33.8088
 30
0.0
 11
58.371
 21
39.6074
 31
0.0
  0
LINE
  8
0
 62
     0
 10
58.371
 20
39.6074
 30
0.0
 11
59.1704
 21
39.6074
 31
0.0
  0
LINE
  8
0
 62
     0
 10
59.1704
 20
39.6074
 30
0.0
 11
59.1704
 21
42.7069
 31
0.0
  0
LINE
  8
0
 62
     0
 10
59.1704
 20
42.7069
 30
0.0
 11
58.371
 21
42.7069
 31
0.0
  0
LINE
  8
0
 62
     0
 10
58.371
 20
42.7069
 30
0.0
 11
58.371
 21
43.7085
 31
0.0
  0
LINE
  8
0
 62
     0
 10
58.371
 20
43.7085
 30
0.0
 11
44.3699
 21
43.7085
 31
0.0
  0
LINE
  8
0
 62
     0
 10
64.2772
 20
52.1353
 30
0.0
 11
63.7205
 21
51.8513
 31
0.0
  0
LINE
  8
0
 62
     0
 10
63.7205
 20
51.8513
 30
0.0
 11
63.2781
 21
51.4078
 31
0.0
  0
LINE
  8
0
 62
     0
 10
63.2781
 20
51.4078
 30
0.0
 11
62.9931
 21
50.8512
 31
0.0
  0
LINE
  8
0
 62
     0
 10
62.9931
 20
50.8512
 30
0.0
 11
62.8964
 21
50.2324
 31
0.0
  0
LINE
  8
0
 62
     0
 10
62.8964
 20
50.2324
 30
0.0
 11
62.9931
 21
49.615
 31
0.0
  0
LINE
  8
0
 62
     0
 10
62.9931
 20
49.615
 30
0.0
 11
63.2781
 21
49.0569
 31
0.0
  0
LINE
  8
0
 62
     0
 10
63.2781
 20
49.0569
 30
0.0
 11
63.7205
 21
48.6145
 31
0.0
  0
LINE
  8
0
 62
     0
 10
63.7205
 20
48.6145
 30
0.0
 11
64.2772
 21
48.3306
 31
0.0
  0
LINE
  8
0
 62
     0
 10
64.2772
 20
48.3306
 30
0.0
 11
64.8959
 21
48.2328
 31
0.0
  0
LINE
  8
0
 62
     0
 10
64.8959
 20
48.2328
 30
0.0
 11
65.5147
 21
48.3306
 31
0.0
  0
LINE
  8
0
 62
     0
 10
65.5147
 20
48.3306
 30
0.0
 11
66.0714
 21
48.6145
 31
0.0
  0
LINE
  8
0
 62
     0
 10
66.0714
 20
48.6145
 30
0.0
 11
66.5152
 21
49.0569
 31
0.0
  0
LINE
  8
0
 62
     0
 10
66.5152
 20
49.0569
 30
0.0
 11
66.7992
 21
49.615
 31
0.0
  0
LINE
  8
0
 62
     0
 10
66.7992
 20
49.615
 30
0.0
 11
66.8969
 21
50.2324
 31
0.0
  0
LINE
  8
0
 62
     0
 10
66.8969
 20
50.2324
 30
0.0
 11
66.7992
 21
50.8512
 31
0.0
  0
LINE
  8
0
 62
     0
 10
66.7992
 20
50.8512
 30
0.0
 11
66.5152
 21
51.4078
 31
0.0
  0
LINE
  8
0
 62
     0
 10
66.5152
 20
51.4078
 30
0.0
 11
66.0714
 21
51.8513
 31
0.0
  0
LINE
  8
0
 62
     0
 10
66.0714
 20
51.8513
 30
0.0
 11
65.5147
 21
52.1353
 31
0.0
  0
LINE
  8
0
 62
     0
 10
65.5147
 20
52.1353
 30
0.0
 11
64.8959
 21
52.2319
 31
0.0
  0
LINE
  8
0
 62
     0
 10
64.8959
 20
52.2319
 30
0.0
 11
64.2772
 21
52.1353
 31
0.0
  0
LINE
  8
0
 62
     0
 10
3.47679
 20
52.1353
 30
0.0
 11
2.92006
 21
51.8513
 31
0.0
  0
LINE
  8
0
 62
     0
 10
2.92006
 20
51.8513
 30
0.0
 11
2.47633
 21
51.4078
 31
0.0
  0
LINE
  8
0
 62
     0
 10
2.47633
 20
51.4078
 30
0.0
 11
2.19246
 21
50.8512
 31
0.0
  0
LINE
  8
0
 62
     0
 10
2.19246
 20
50.8512
 30
0.0
 11
2.09462
 21
50.2324
 31
0.0
  0
LINE
  8
0
 62
     0
 10
2.09462
 20
50.2324
 30
0.0
 11
2.19246
 21
49.615
 31
0.0
  0
LINE
  8
0
 62
     0
 10
2.19246
 20
49.615
 30
0.0
 11
2.47633
 21
49.0569
 31
0.0
  0
LINE
  8
0
 62
     0
 10
2.47633
 20
49.0569
 30
0.0
 11
2.92006
 21
48.6145
 31
0.0
  0
LINE
  8
0
 62
     0
 10
2.92006
 20
48.6145
 30
0.0
 11
3.47679
 21
48.3306
 31
0.0
  0
LINE
  8
0
 62
     0
 10
3.47679
 20
48.3306
 30
0.0
 11
4.09554
 21
48.2328
 31
0.0
  0
LINE
  8
0
 62
     0
 10
4.09554
 20
48.2328
 30
0.0
 11
4.7129
 21
48.3306
 31
0.0
  0
LINE
  8
0
 62
     0
 10
4.7129
 20
48.3306
 30
0.0
 11
5.27099
 21
48.6145
 31
0.0
  0
LINE
  8
0
 62
     0
 10
5.27099
 20
48.6145
 30
0.0
 11
5.71334
 21
49.0569
 31
0.0
  0
LINE
  8
0
 62
     0
 10
5.71334
 20
49.0569
 30
0.0
 11
5.99722
 21
49.615
 31
0.0
  0
LINE
  8
0
 62
     0
 10
5.99722
 20
49.615
 30
0.0
 11
6.09505
 21
50.2324
 31
0.0
  0
LINE
  8
0
 62
     0
 10
6.09505
 20
50.2324
 30
0.0
 11
5.99722
 21
50.8512
 31
0.0
  0
LINE
  8
0
 62
     0
 10
5.99722
 20
50.8512
 30
0.0
 11
5.71334
 21
51.4078
 31
0.0
  0
LINE
  8
0
 62
     0
 10
5.71334
 20
51.4078
 30
0.0
 11
5.27099
 21
51.8513
 31
0.0
  0
LINE
  8
0
 62
     0
 10
5.27099
 20
51.8513
 30
0.0
 11
4.7129
 21
52.1353
 31
0.0
  0
LINE
  8
0
 62
     0
 10
4.7129
 20
52.1353
 30
0.0
 11
4.09554
 21
52.2319
 31
0.0
  0
LINE
  8
0
 62
     0
 10
4.09554
 20
52.2319
 30
0.0
 11
3.47679
 21
52.1353
 31
0.0
  0
ENDSEC
  0
EOF
