M48
; DRILL file {KiCad 8.0.2} date 2024-12-03T18:18:43-0800
; FORMAT={-:-/ absolute / inch / decimal}
; #@! TF.CreationDate,2024-12-03T18:18:43-08:00
; #@! TF.GenerationSoftware,Kicad,Pcbnew,8.0.2
; #@! TF.FileFunction,Plated,1,2,PTH
FMAT,2
INCH
; #@! TA.AperFunction,Plated,PTH,ViaDrill
T1C0.0118
; #@! TA.AperFunction,Plated,PTH,ComponentDrill
T2C0.0276
; #@! TA.AperFunction,Plated,PTH,ComponentDrill
T3C0.0579
%
G90
G05
T1
X2.315Y-3.27
X2.5246Y-2.9637
X2.6255Y-3.1137
X2.6496Y-3.4146
X2.675Y-2.675
X3.0025Y-2.9125
X3.0525Y-2.8975
X3.23Y-2.93
X3.255Y-2.895
X3.34Y-2.73
X3.385Y-3.5135
X3.4605Y-3.19
T3
X2.7834Y-2.4125
X2.835Y-2.355
X3.0319Y-2.3353
X3.0334Y-2.3125
X3.5331Y-2.4124
X3.5847Y-2.3549
X3.7815Y-2.3352
X3.7831Y-2.3124
T2
G00X2.1704Y-2.1808
M15
G01X2.1704Y-2.228
M16
G05
G00X2.1704Y-2.358
M15
G01X2.1704Y-2.4052
M16
G05
G00X2.4578Y-2.1808
M15
G01X2.4578Y-2.228
M16
G05
G00X2.4578Y-2.358
M15
G01X2.4578Y-2.4052
M16
G05
M30
