G04 #@! TF.GenerationSoftware,KiCad,Pcbnew,8.0.2*
G04 #@! TF.CreationDate,2024-12-03T17:22:36-08:00*
G04 #@! TF.ProjectId,keypad-pcb,6b657970-6164-42d7-9063-622e6b696361,rev?*
G04 #@! TF.SameCoordinates,Original*
G04 #@! TF.FileFunction,Copper,L2,Bot*
G04 #@! TF.FilePolarity,Positive*
%FSLAX46Y46*%
G04 Gerber Fmt 4.6, Leading zero omitted, Abs format (unit mm)*
G04 Created by KiCad (PCBNEW 8.0.2) date 2024-12-03 17:22:36*
%MOMM*%
%LPD*%
G01*
G04 APERTURE LIST*
G04 Aperture macros list*
%AMRoundRect*
0 Rectangle with rounded corners*
0 $1 Rounding radius*
0 $2 $3 $4 $5 $6 $7 $8 $9 X,Y pos of 4 corners*
0 Add a 4 corners polygon primitive as box body*
4,1,4,$2,$3,$4,$5,$6,$7,$8,$9,$2,$3,0*
0 Add four circle primitives for the rounded corners*
1,1,$1+$1,$2,$3*
1,1,$1+$1,$4,$5*
1,1,$1+$1,$6,$7*
1,1,$1+$1,$8,$9*
0 Add four rect primitives between the rounded corners*
20,1,$1+$1,$2,$3,$4,$5,0*
20,1,$1+$1,$4,$5,$6,$7,0*
20,1,$1+$1,$6,$7,$8,$9,0*
20,1,$1+$1,$8,$9,$2,$3,0*%
%AMHorizOval*
0 Thick line with rounded ends*
0 $1 width*
0 $2 $3 position (X,Y) of the first rounded end (center of the circle)*
0 $4 $5 position (X,Y) of the second rounded end (center of the circle)*
0 Add line between two ends*
20,1,$1,$2,$3,$4,$5,0*
0 Add two circle primitives to create the rounded ends*
1,1,$1,$2,$3*
1,1,$1,$4,$5*%
G04 Aperture macros list end*
G04 #@! TA.AperFunction,ComponentPad*
%ADD10HorizOval,2.250000X0.655001X0.730000X-0.655001X-0.730000X0*%
G04 #@! TD*
G04 #@! TA.AperFunction,ComponentPad*
%ADD11C,2.250000*%
G04 #@! TD*
G04 #@! TA.AperFunction,ComponentPad*
%ADD12HorizOval,2.250000X0.020000X0.290000X-0.020000X-0.290000X0*%
G04 #@! TD*
G04 #@! TA.AperFunction,SMDPad,CuDef*
%ADD13RoundRect,0.225000X0.375000X-0.225000X0.375000X0.225000X-0.375000X0.225000X-0.375000X-0.225000X0*%
G04 #@! TD*
G04 #@! TA.AperFunction,SMDPad,CuDef*
%ADD14RoundRect,0.250000X-0.475000X0.250000X-0.475000X-0.250000X0.475000X-0.250000X0.475000X0.250000X0*%
G04 #@! TD*
G04 #@! TA.AperFunction,SMDPad,CuDef*
%ADD15RoundRect,0.250000X-0.375000X-0.625000X0.375000X-0.625000X0.375000X0.625000X-0.375000X0.625000X0*%
G04 #@! TD*
G04 #@! TA.AperFunction,SMDPad,CuDef*
%ADD16RoundRect,0.250000X-0.262500X-0.450000X0.262500X-0.450000X0.262500X0.450000X-0.262500X0.450000X0*%
G04 #@! TD*
G04 #@! TA.AperFunction,SMDPad,CuDef*
%ADD17RoundRect,0.250000X0.250000X0.475000X-0.250000X0.475000X-0.250000X-0.475000X0.250000X-0.475000X0*%
G04 #@! TD*
G04 #@! TA.AperFunction,SMDPad,CuDef*
%ADD18RoundRect,0.250000X-0.250000X-0.475000X0.250000X-0.475000X0.250000X0.475000X-0.250000X0.475000X0*%
G04 #@! TD*
G04 #@! TA.AperFunction,SMDPad,CuDef*
%ADD19RoundRect,0.250000X0.262500X0.450000X-0.262500X0.450000X-0.262500X-0.450000X0.262500X-0.450000X0*%
G04 #@! TD*
G04 #@! TA.AperFunction,SMDPad,CuDef*
%ADD20R,0.550000X1.500000*%
G04 #@! TD*
G04 #@! TA.AperFunction,SMDPad,CuDef*
%ADD21R,1.500000X0.550000*%
G04 #@! TD*
G04 #@! TA.AperFunction,SMDPad,CuDef*
%ADD22R,1.200000X1.400000*%
G04 #@! TD*
G04 #@! TA.AperFunction,SMDPad,CuDef*
%ADD23R,2.250000X0.500000*%
G04 #@! TD*
G04 #@! TA.AperFunction,ComponentPad*
%ADD24O,2.700000X1.700000*%
G04 #@! TD*
G04 #@! TA.AperFunction,SMDPad,CuDef*
%ADD25R,1.100000X1.800000*%
G04 #@! TD*
G04 #@! TA.AperFunction,SMDPad,CuDef*
%ADD26RoundRect,0.250000X0.475000X-0.250000X0.475000X0.250000X-0.475000X0.250000X-0.475000X-0.250000X0*%
G04 #@! TD*
G04 #@! TA.AperFunction,ViaPad*
%ADD27C,0.600000*%
G04 #@! TD*
G04 #@! TA.AperFunction,Conductor*
%ADD28C,0.381000*%
G04 #@! TD*
G04 #@! TA.AperFunction,Conductor*
%ADD29C,0.254000*%
G04 #@! TD*
G04 #@! TA.AperFunction,Conductor*
%ADD30C,0.200000*%
G04 #@! TD*
G04 APERTURE END LIST*
D10*
X64162884Y-44992198D03*
D11*
X64817883Y-44262198D03*
D12*
X69837883Y-43472198D03*
D11*
X69857883Y-43182198D03*
D10*
X83205001Y-44990000D03*
D11*
X83860000Y-44260000D03*
D12*
X88880000Y-43470000D03*
D11*
X88900000Y-43180000D03*
D13*
X93756584Y-50068115D03*
X93756584Y-46768115D03*
D14*
X90551000Y-65852000D03*
X90551000Y-67752000D03*
D15*
X74927000Y-92075000D03*
X77727000Y-92075000D03*
D16*
X83542500Y-60833000D03*
X85367500Y-60833000D03*
D17*
X74710000Y-59539000D03*
X72810000Y-59539000D03*
D16*
X70207500Y-88392000D03*
X72032500Y-88392000D03*
D18*
X60261000Y-65978000D03*
X62161000Y-65978000D03*
X75843000Y-83123000D03*
X77743000Y-83123000D03*
D19*
X69958500Y-78805000D03*
X68133500Y-78805000D03*
D20*
X83460000Y-76631000D03*
X82660000Y-76631000D03*
X81860000Y-76631000D03*
X81060000Y-76631000D03*
X80260000Y-76631000D03*
X79460000Y-76631000D03*
X78660000Y-76631000D03*
X77860000Y-76631000D03*
X77060000Y-76631000D03*
X76260000Y-76631000D03*
X75460000Y-76631000D03*
D21*
X73760000Y-74931000D03*
X73760000Y-74131000D03*
X73760000Y-73331000D03*
X73760000Y-72531000D03*
X73760000Y-71731000D03*
X73760000Y-70931000D03*
X73760000Y-70131000D03*
X73760000Y-69331000D03*
X73760000Y-68531000D03*
X73760000Y-67731000D03*
X73760000Y-66931000D03*
D20*
X75460000Y-65231000D03*
X76260000Y-65231000D03*
X77060000Y-65231000D03*
X77860000Y-65231000D03*
X78660000Y-65231000D03*
X79460000Y-65231000D03*
X80260000Y-65231000D03*
X81060000Y-65231000D03*
X81860000Y-65231000D03*
X82660000Y-65231000D03*
X83460000Y-65231000D03*
D21*
X85160000Y-66931000D03*
X85160000Y-67731000D03*
X85160000Y-68531000D03*
X85160000Y-69331000D03*
X85160000Y-70131000D03*
X85160000Y-70931000D03*
X85160000Y-71731000D03*
X85160000Y-72531000D03*
X85160000Y-73331000D03*
X85160000Y-74131000D03*
X85160000Y-74931000D03*
D13*
X74776000Y-49968479D03*
X74776000Y-46668479D03*
D22*
X62061000Y-69577000D03*
X62061000Y-71777000D03*
X60361000Y-71777000D03*
X60361000Y-69577000D03*
D19*
X70207500Y-85979000D03*
X72032500Y-85979000D03*
D18*
X84860000Y-82742000D03*
X86760000Y-82742000D03*
D23*
X64021000Y-85014000D03*
X64021000Y-85814000D03*
X64021000Y-86614000D03*
X64021000Y-87414000D03*
X64021000Y-88214000D03*
D24*
X59521000Y-82964000D03*
X59521000Y-90264000D03*
X64021000Y-82964000D03*
X64021000Y-90264000D03*
D17*
X62161000Y-75630000D03*
X60261000Y-75630000D03*
D25*
X86796000Y-85546000D03*
X90496000Y-91746000D03*
X90496000Y-85546000D03*
X86796000Y-91746000D03*
D26*
X68157000Y-76199000D03*
X68157000Y-74299000D03*
D27*
X77216000Y-80748000D03*
X67040500Y-80101500D03*
X76300000Y-59539000D03*
X92710000Y-62992000D03*
X84860000Y-80136000D03*
X82550000Y-53594000D03*
X73406000Y-83312000D03*
X88519000Y-93853000D03*
D28*
X86760000Y-85510000D02*
X86796000Y-85546000D01*
X86760000Y-82742000D02*
X86760000Y-85510000D01*
X80340000Y-92075000D02*
X77727000Y-92075000D01*
X84860000Y-87555000D02*
X80340000Y-92075000D01*
X84860000Y-82742000D02*
X84860000Y-87555000D01*
X67129000Y-88214000D02*
X64021000Y-88214000D01*
X70990000Y-92075000D02*
X67129000Y-88214000D01*
X74927000Y-92075000D02*
X70990000Y-92075000D01*
D29*
X69958500Y-79864500D02*
X69958500Y-78805000D01*
X73406000Y-83312000D02*
X69958500Y-79864500D01*
D30*
X69215000Y-86614000D02*
X64021000Y-86614000D01*
X69850000Y-85979000D02*
X69215000Y-86614000D01*
X70207500Y-85979000D02*
X69850000Y-85979000D01*
X69229500Y-87414000D02*
X64021000Y-87414000D01*
X70207500Y-88392000D02*
X69229500Y-87414000D01*
D29*
X81860000Y-84383000D02*
X81860000Y-76631000D01*
X77851000Y-88392000D02*
X81860000Y-84383000D01*
X72032500Y-88392000D02*
X77851000Y-88392000D01*
X77851000Y-85979000D02*
X81060000Y-82770000D01*
X81060000Y-82770000D02*
X81060000Y-76631000D01*
X72032500Y-85979000D02*
X77851000Y-85979000D01*
D28*
X66116000Y-85014000D02*
X64021000Y-85014000D01*
X66802000Y-82042000D02*
X66802000Y-84328000D01*
X65109000Y-80349000D02*
X66802000Y-82042000D01*
X67014000Y-74233000D02*
X65109000Y-76138000D01*
X67838342Y-74233000D02*
X67014000Y-74233000D01*
X66802000Y-84328000D02*
X66116000Y-85014000D01*
X67904342Y-74299000D02*
X67838342Y-74233000D01*
X68157000Y-74299000D02*
X67904342Y-74299000D01*
X65109000Y-76138000D02*
X65109000Y-80349000D01*
D29*
X90496000Y-92638000D02*
X90496000Y-91746000D01*
X89281000Y-93853000D02*
X90496000Y-92638000D01*
X88519000Y-93853000D02*
X89281000Y-93853000D01*
D28*
X86796000Y-85546000D02*
X86760000Y-85582000D01*
X78660000Y-79304000D02*
X77216000Y-80748000D01*
X78660000Y-76631000D02*
X78660000Y-79304000D01*
X72490000Y-59539000D02*
X72810000Y-59539000D01*
X86674000Y-74131000D02*
X86699000Y-74106000D01*
X71256000Y-72531000D02*
X73760000Y-72531000D01*
X60261000Y-65978000D02*
X60261000Y-64642000D01*
D29*
X60361000Y-69827000D02*
X62061000Y-71527000D01*
D28*
X86699000Y-74106000D02*
X88350000Y-75757000D01*
X80260000Y-73852000D02*
X80260000Y-74131000D01*
X79460000Y-70931000D02*
X80260000Y-71731000D01*
X88350000Y-78170000D02*
X86760000Y-79760000D01*
X75460000Y-66931000D02*
X75460000Y-65231000D01*
X72810000Y-59539000D02*
X72810000Y-61101000D01*
X62161000Y-75630000D02*
X62161000Y-71877000D01*
X60361000Y-69958000D02*
X60361000Y-70077000D01*
X61592000Y-63311000D02*
X68718000Y-63311000D01*
X82660000Y-67731000D02*
X85160000Y-67731000D01*
X60261000Y-64642000D02*
X61592000Y-63311000D01*
X80260000Y-74131000D02*
X85160000Y-74131000D01*
X68157000Y-74299000D02*
X69488000Y-74299000D01*
X85160000Y-74131000D02*
X86674000Y-74131000D01*
X77860000Y-72531000D02*
X79460000Y-70931000D01*
X60361000Y-69577000D02*
X60361000Y-69958000D01*
X79460000Y-70931000D02*
X82660000Y-67731000D01*
X79460000Y-70931000D02*
X75460000Y-66931000D01*
X60261000Y-69858000D02*
X60361000Y-69958000D01*
X91654000Y-67731000D02*
X85160000Y-67731000D01*
X94107000Y-65278000D02*
X91654000Y-67731000D01*
X80260000Y-80606000D02*
X80260000Y-76631000D01*
X94107000Y-63246000D02*
X94107000Y-65278000D01*
X85201000Y-74172000D02*
X85160000Y-74131000D01*
X62161000Y-71877000D02*
X62061000Y-71777000D01*
X75460000Y-63751000D02*
X75460000Y-65231000D01*
X80260000Y-73852000D02*
X80260000Y-76631000D01*
X80260000Y-71731000D02*
X80260000Y-73852000D01*
X60261000Y-65978000D02*
X60261000Y-69477000D01*
X91694000Y-60833000D02*
X94107000Y-63246000D01*
X68718000Y-63311000D02*
X72490000Y-59539000D01*
X77743000Y-83123000D02*
X80260000Y-80606000D01*
X60361000Y-69577000D02*
X60361000Y-69827000D01*
X60261000Y-69477000D02*
X60361000Y-69577000D01*
X85367500Y-60833000D02*
X91694000Y-60833000D01*
X86760000Y-79760000D02*
X86760000Y-82742000D01*
X62061000Y-71527000D02*
X62061000Y-71777000D01*
X73760000Y-72531000D02*
X77860000Y-72531000D01*
X69488000Y-74299000D02*
X71256000Y-72531000D01*
X88350000Y-75757000D02*
X88350000Y-78170000D01*
X72810000Y-61101000D02*
X75460000Y-63751000D01*
D29*
X79460000Y-76631000D02*
X79460000Y-79506000D01*
X79460000Y-79506000D02*
X75843000Y-83123000D01*
D28*
X76260000Y-65231000D02*
X76260000Y-63309000D01*
X84860000Y-80141000D02*
X84860000Y-80136000D01*
X76260000Y-63309000D02*
X74649000Y-61698000D01*
X84860000Y-80136000D02*
X87461000Y-77535000D01*
X76300000Y-59539000D02*
X74710000Y-59539000D01*
X71599000Y-73331000D02*
X73760000Y-73331000D01*
X66648000Y-77065000D02*
X67514000Y-76199000D01*
X89088000Y-65852000D02*
X88009000Y-66931000D01*
X68731000Y-76199000D02*
X71599000Y-73331000D01*
X87461000Y-76138000D02*
X86254000Y-74931000D01*
X92710000Y-62992000D02*
X90551000Y-65151000D01*
X90551000Y-65151000D02*
X90551000Y-65852000D01*
X67040500Y-80101500D02*
X66648000Y-79709000D01*
X74649000Y-59600000D02*
X74710000Y-59539000D01*
X67514000Y-76199000D02*
X68157000Y-76199000D01*
X90551000Y-65852000D02*
X89088000Y-65852000D01*
X68157000Y-76199000D02*
X68731000Y-76199000D01*
X68157000Y-76199000D02*
X68157000Y-78781500D01*
X86254000Y-74931000D02*
X85160000Y-74931000D01*
X87461000Y-77535000D02*
X87461000Y-76138000D01*
X82660000Y-77941000D02*
X82660000Y-76631000D01*
X88009000Y-66931000D02*
X85160000Y-66931000D01*
X74649000Y-61698000D02*
X74649000Y-59600000D01*
X84860000Y-80141000D02*
X82660000Y-77941000D01*
X66648000Y-79709000D02*
X66648000Y-77065000D01*
X68157000Y-78781500D02*
X68133500Y-78805000D01*
X84860000Y-82742000D02*
X84860000Y-80141000D01*
D29*
X73760000Y-70931000D02*
X65783000Y-70931000D01*
X62161000Y-69858000D02*
X62061000Y-69958000D01*
X62161000Y-69477000D02*
X62061000Y-69577000D01*
X65783000Y-70931000D02*
X64429000Y-69577000D01*
X62161000Y-65978000D02*
X62161000Y-69477000D01*
X64429000Y-69577000D02*
X62061000Y-69577000D01*
X93806057Y-51054000D02*
X93756584Y-51004527D01*
X79460000Y-65231000D02*
X79460000Y-51604000D01*
X79460000Y-51604000D02*
X79502000Y-51562000D01*
X93756584Y-51004527D02*
X93756584Y-50068115D01*
X74776000Y-49968479D02*
X74776000Y-50946943D01*
X75391057Y-51562000D02*
X78613000Y-51562000D01*
X79502000Y-51562000D02*
X93298057Y-51562000D01*
X78613000Y-51562000D02*
X79502000Y-51562000D01*
X93298057Y-51562000D02*
X93806057Y-51054000D01*
X74776000Y-50946943D02*
X75391057Y-51562000D01*
X74776000Y-45231943D02*
X72726255Y-43182198D01*
X72726255Y-43182198D02*
X69429940Y-43182198D01*
X74776000Y-46668479D02*
X74776000Y-45231943D01*
X91520057Y-43180000D02*
X88472057Y-43180000D01*
X93756584Y-45515473D02*
X93806057Y-45466000D01*
X93756584Y-46768115D02*
X93756584Y-45515473D01*
X93806057Y-45466000D02*
X91520057Y-43180000D01*
X66421000Y-52578000D02*
X64135000Y-50292000D01*
X78660000Y-58213000D02*
X73025000Y-52578000D01*
X73025000Y-52578000D02*
X66421000Y-52578000D01*
X78660000Y-65231000D02*
X78660000Y-58213000D01*
X64135000Y-50292000D02*
X64135000Y-46349315D01*
X64135000Y-46349315D02*
X63507883Y-45722198D01*
X82550000Y-53594000D02*
X82550000Y-53848000D01*
X80260000Y-56138000D02*
X80260000Y-65231000D01*
X82550000Y-53848000D02*
X80260000Y-56138000D01*
X83500500Y-65190500D02*
X83460000Y-65231000D01*
X83542500Y-60833000D02*
X83500500Y-60875000D01*
X83500500Y-60875000D02*
X83500500Y-65190500D01*
X69958500Y-76368500D02*
X69958500Y-78805000D01*
X73760000Y-74131000D02*
X72196000Y-74131000D01*
X72196000Y-74131000D02*
X69958500Y-76368500D01*
X60261000Y-75630000D02*
X60261000Y-76774000D01*
X65759000Y-71731000D02*
X73760000Y-71731000D01*
X63600000Y-73890000D02*
X65759000Y-71731000D01*
X60261000Y-76774000D02*
X60679000Y-77192000D01*
X63600000Y-76684000D02*
X63600000Y-73890000D01*
X60679000Y-77192000D02*
X63092000Y-77192000D01*
X63092000Y-77192000D02*
X63600000Y-76684000D01*
X60261000Y-72258000D02*
X60361000Y-72158000D01*
X60261000Y-75630000D02*
X60261000Y-71877000D01*
X60261000Y-71877000D02*
X60361000Y-71777000D01*
G04 #@! TA.AperFunction,Conductor*
G36*
X64496250Y-63264778D02*
G01*
X64542005Y-63317582D01*
X64553211Y-63369093D01*
X64553211Y-68825500D01*
X64533526Y-68892539D01*
X64480722Y-68938294D01*
X64429211Y-68949500D01*
X63285483Y-68949500D01*
X63218444Y-68929815D01*
X63172689Y-68877011D01*
X63161661Y-68832138D01*
X63161500Y-68829137D01*
X63155091Y-68769516D01*
X63104797Y-68634671D01*
X63104793Y-68634664D01*
X63018547Y-68519455D01*
X63018544Y-68519452D01*
X62903334Y-68433205D01*
X62869164Y-68420460D01*
X62813231Y-68378587D01*
X62788816Y-68313122D01*
X62788500Y-68304279D01*
X62788500Y-67171143D01*
X62808185Y-67104104D01*
X62847401Y-67065606D01*
X62879656Y-67045712D01*
X63003712Y-66921656D01*
X63095814Y-66772334D01*
X63150999Y-66605797D01*
X63161500Y-66503009D01*
X63161499Y-65452992D01*
X63150999Y-65350203D01*
X63095814Y-65183666D01*
X63003712Y-65034344D01*
X62879656Y-64910288D01*
X62730334Y-64818186D01*
X62563797Y-64763001D01*
X62563795Y-64763000D01*
X62461010Y-64752500D01*
X61860998Y-64752500D01*
X61860980Y-64752501D01*
X61758203Y-64763000D01*
X61758200Y-64763001D01*
X61591668Y-64818185D01*
X61591663Y-64818187D01*
X61442342Y-64910289D01*
X61318288Y-65034343D01*
X61318283Y-65034349D01*
X61316241Y-65037661D01*
X61314247Y-65039453D01*
X61313807Y-65040011D01*
X61313711Y-65039935D01*
X61264291Y-65084383D01*
X61195328Y-65095602D01*
X61131247Y-65067755D01*
X61105168Y-65037656D01*
X61103319Y-65034659D01*
X61103316Y-65034655D01*
X60979345Y-64910684D01*
X60830124Y-64818643D01*
X60830119Y-64818641D01*
X60663697Y-64763494D01*
X60663690Y-64763493D01*
X60560986Y-64753000D01*
X60511000Y-64753000D01*
X60511000Y-67202999D01*
X60560972Y-67202999D01*
X60560986Y-67202998D01*
X60663697Y-67192505D01*
X60830119Y-67137358D01*
X60830124Y-67137356D01*
X60979345Y-67045315D01*
X61103318Y-66921342D01*
X61105165Y-66918348D01*
X61106969Y-66916724D01*
X61107798Y-66915677D01*
X61107976Y-66915818D01*
X61157110Y-66871621D01*
X61226073Y-66860396D01*
X61290156Y-66888236D01*
X61316243Y-66918341D01*
X61318288Y-66921656D01*
X61442344Y-67045712D01*
X61474597Y-67065606D01*
X61521321Y-67117551D01*
X61533500Y-67171143D01*
X61533500Y-68252517D01*
X61513815Y-68319556D01*
X61461011Y-68365311D01*
X61416138Y-68376339D01*
X61413137Y-68376499D01*
X61353515Y-68382909D01*
X61253617Y-68420168D01*
X61183926Y-68425152D01*
X61166952Y-68420168D01*
X61068380Y-68383403D01*
X61068372Y-68383401D01*
X61008844Y-68377000D01*
X60611000Y-68377000D01*
X60611000Y-69703000D01*
X60591315Y-69770039D01*
X60538511Y-69815794D01*
X60487000Y-69827000D01*
X59261000Y-69827000D01*
X59261000Y-70324844D01*
X59267401Y-70384372D01*
X59267403Y-70384379D01*
X59317645Y-70519086D01*
X59317646Y-70519088D01*
X59379918Y-70602272D01*
X59404335Y-70667736D01*
X59389484Y-70736009D01*
X59379918Y-70750894D01*
X59317204Y-70834669D01*
X59317202Y-70834671D01*
X59266908Y-70969517D01*
X59260501Y-71029116D01*
X59260500Y-71029135D01*
X59260500Y-72524870D01*
X59260501Y-72524876D01*
X59266908Y-72584483D01*
X59317202Y-72719328D01*
X59317206Y-72719335D01*
X59403452Y-72834544D01*
X59403455Y-72834547D01*
X59518664Y-72920793D01*
X59518669Y-72920796D01*
X59552832Y-72933538D01*
X59608766Y-72975408D01*
X59633184Y-73040871D01*
X59633500Y-73049720D01*
X59633500Y-74436855D01*
X59613815Y-74503894D01*
X59574598Y-74542393D01*
X59542344Y-74562287D01*
X59418289Y-74686342D01*
X59326187Y-74835663D01*
X59326186Y-74835666D01*
X59271001Y-75002203D01*
X59271001Y-75002204D01*
X59271000Y-75002204D01*
X59260500Y-75104983D01*
X59260500Y-76155001D01*
X59260501Y-76155019D01*
X59271000Y-76257796D01*
X59271001Y-76257799D01*
X59326102Y-76424081D01*
X59326186Y-76424334D01*
X59418288Y-76573656D01*
X59542344Y-76697712D01*
X59574597Y-76717606D01*
X59621321Y-76769551D01*
X59633500Y-76823143D01*
X59633500Y-76835807D01*
X59657612Y-76957028D01*
X59657613Y-76957032D01*
X59657614Y-76957035D01*
X59679125Y-77008965D01*
X59704917Y-77071233D01*
X59771849Y-77171404D01*
X59771852Y-77171414D01*
X59771855Y-77171413D01*
X59773587Y-77174006D01*
X59773589Y-77174008D01*
X60191589Y-77592008D01*
X60278992Y-77679411D01*
X60278993Y-77679412D01*
X60381760Y-77748079D01*
X60381773Y-77748086D01*
X60495960Y-77795383D01*
X60495965Y-77795385D01*
X60495969Y-77795385D01*
X60495970Y-77795386D01*
X60617194Y-77819500D01*
X60617197Y-77819500D01*
X63153804Y-77819500D01*
X63153805Y-77819499D01*
X63275035Y-77795386D01*
X63355784Y-77761937D01*
X63389233Y-77748083D01*
X63492008Y-77679411D01*
X63579411Y-77592008D01*
X64087410Y-77084009D01*
X64095948Y-77071232D01*
X64156083Y-76981233D01*
X64203385Y-76867035D01*
X64212116Y-76823143D01*
X64227500Y-76745806D01*
X64227500Y-74201281D01*
X64247185Y-74134242D01*
X64263819Y-74113600D01*
X64341530Y-74035889D01*
X64402853Y-74002404D01*
X64472545Y-74007388D01*
X64528478Y-74049260D01*
X64552895Y-74114724D01*
X64553211Y-74123570D01*
X64553211Y-78234093D01*
X64533526Y-78301132D01*
X64480722Y-78346887D01*
X64429211Y-78358093D01*
X58581211Y-78358093D01*
X58514172Y-78338408D01*
X58468417Y-78285604D01*
X58457211Y-78234093D01*
X58457211Y-68829155D01*
X59261000Y-68829155D01*
X59261000Y-69327000D01*
X60111000Y-69327000D01*
X60111000Y-68377000D01*
X59713155Y-68377000D01*
X59653627Y-68383401D01*
X59653620Y-68383403D01*
X59518913Y-68433645D01*
X59518906Y-68433649D01*
X59403812Y-68519809D01*
X59403809Y-68519812D01*
X59317649Y-68634906D01*
X59317645Y-68634913D01*
X59267403Y-68769620D01*
X59267401Y-68769627D01*
X59261000Y-68829155D01*
X58457211Y-68829155D01*
X58457211Y-66502986D01*
X59261001Y-66502986D01*
X59271494Y-66605697D01*
X59326641Y-66772119D01*
X59326643Y-66772124D01*
X59418684Y-66921345D01*
X59542654Y-67045315D01*
X59691875Y-67137356D01*
X59691880Y-67137358D01*
X59858302Y-67192505D01*
X59858309Y-67192506D01*
X59961019Y-67202999D01*
X60010999Y-67202998D01*
X60011000Y-67202998D01*
X60011000Y-66228000D01*
X59261001Y-66228000D01*
X59261001Y-66502986D01*
X58457211Y-66502986D01*
X58457211Y-65453013D01*
X59261000Y-65453013D01*
X59261000Y-65728000D01*
X60011000Y-65728000D01*
X60011000Y-64753000D01*
X60010999Y-64752999D01*
X59961029Y-64753000D01*
X59961011Y-64753001D01*
X59858302Y-64763494D01*
X59691880Y-64818641D01*
X59691875Y-64818643D01*
X59542654Y-64910684D01*
X59418684Y-65034654D01*
X59326643Y-65183875D01*
X59326641Y-65183880D01*
X59271494Y-65350302D01*
X59271493Y-65350309D01*
X59261000Y-65453013D01*
X58457211Y-65453013D01*
X58457211Y-63369093D01*
X58476896Y-63302054D01*
X58529700Y-63256299D01*
X58581211Y-63245093D01*
X64429211Y-63245093D01*
X64496250Y-63264778D01*
G37*
G04 #@! TD.AperFunction*
G04 #@! TA.AperFunction,Conductor*
G36*
X64184758Y-70224185D02*
G01*
X64205400Y-70240819D01*
X64516892Y-70552311D01*
X64550377Y-70613634D01*
X64553211Y-70639992D01*
X64553211Y-71998008D01*
X64533526Y-72065047D01*
X64516892Y-72085689D01*
X63199992Y-73402589D01*
X63156289Y-73446292D01*
X63112586Y-73489994D01*
X63112585Y-73489996D01*
X63043233Y-73593789D01*
X63041586Y-73598393D01*
X62996614Y-73706964D01*
X62996612Y-73706972D01*
X62972500Y-73828192D01*
X62972500Y-74397967D01*
X62952815Y-74465006D01*
X62900011Y-74510761D01*
X62830853Y-74520705D01*
X62783404Y-74503506D01*
X62730128Y-74470645D01*
X62730119Y-74470641D01*
X62563697Y-74415494D01*
X62563690Y-74415493D01*
X62460986Y-74405000D01*
X62411000Y-74405000D01*
X62411000Y-75756000D01*
X62391315Y-75823039D01*
X62338511Y-75868794D01*
X62287000Y-75880000D01*
X62035000Y-75880000D01*
X61967961Y-75860315D01*
X61922206Y-75807511D01*
X61911000Y-75756000D01*
X61911000Y-74405000D01*
X61910999Y-74404999D01*
X61861029Y-74405000D01*
X61861011Y-74405001D01*
X61758302Y-74415494D01*
X61591880Y-74470641D01*
X61591875Y-74470643D01*
X61442654Y-74562684D01*
X61318683Y-74686655D01*
X61318679Y-74686660D01*
X61316826Y-74689665D01*
X61315018Y-74691290D01*
X61314202Y-74692323D01*
X61314025Y-74692183D01*
X61264874Y-74736385D01*
X61195911Y-74747601D01*
X61131831Y-74719752D01*
X61105753Y-74689653D01*
X61105737Y-74689628D01*
X61103712Y-74686344D01*
X60979656Y-74562288D01*
X60979655Y-74562287D01*
X60947402Y-74542393D01*
X60900678Y-74490444D01*
X60888500Y-74436855D01*
X60888500Y-73101482D01*
X60908185Y-73034443D01*
X60960989Y-72988688D01*
X61005882Y-72977659D01*
X61008871Y-72977499D01*
X61008872Y-72977499D01*
X61068483Y-72971091D01*
X61168382Y-72933830D01*
X61238072Y-72928847D01*
X61255047Y-72933831D01*
X61353620Y-72970596D01*
X61353627Y-72970598D01*
X61413155Y-72976999D01*
X61413172Y-72977000D01*
X61811000Y-72977000D01*
X62311000Y-72977000D01*
X62708828Y-72977000D01*
X62708844Y-72976999D01*
X62768372Y-72970598D01*
X62768379Y-72970596D01*
X62903086Y-72920354D01*
X62903093Y-72920350D01*
X63018187Y-72834190D01*
X63018190Y-72834187D01*
X63104350Y-72719093D01*
X63104354Y-72719086D01*
X63154596Y-72584379D01*
X63154598Y-72584372D01*
X63160999Y-72524844D01*
X63161000Y-72524827D01*
X63161000Y-72027000D01*
X62311000Y-72027000D01*
X62311000Y-72977000D01*
X61811000Y-72977000D01*
X61811000Y-71651000D01*
X61830685Y-71583961D01*
X61883489Y-71538206D01*
X61935000Y-71527000D01*
X63161000Y-71527000D01*
X63161000Y-71029172D01*
X63160999Y-71029155D01*
X63154598Y-70969627D01*
X63154596Y-70969620D01*
X63104354Y-70834913D01*
X63104352Y-70834910D01*
X63042082Y-70751727D01*
X63017665Y-70686262D01*
X63032517Y-70617989D01*
X63042083Y-70603104D01*
X63057524Y-70582478D01*
X63104796Y-70519331D01*
X63155091Y-70384483D01*
X63161500Y-70324873D01*
X63161500Y-70324868D01*
X63161663Y-70321846D01*
X63184916Y-70255960D01*
X63240099Y-70213104D01*
X63285484Y-70204500D01*
X64117719Y-70204500D01*
X64184758Y-70224185D01*
G37*
G04 #@! TD.AperFunction*
G04 #@! TA.AperFunction,Conductor*
G36*
X66984550Y-80900761D02*
G01*
X67040498Y-80907065D01*
X67040499Y-80907065D01*
X67040499Y-80907064D01*
X67040500Y-80907065D01*
X67084178Y-80902143D01*
X67152997Y-80914196D01*
X67204377Y-80961544D01*
X67222054Y-81024000D01*
X67275507Y-85888137D01*
X67256560Y-85955389D01*
X67204262Y-86001722D01*
X67151514Y-86013500D01*
X65770500Y-86013500D01*
X65703461Y-85993815D01*
X65657706Y-85941011D01*
X65646500Y-85889500D01*
X65646499Y-85516130D01*
X65646498Y-85516123D01*
X65646497Y-85516117D01*
X65640091Y-85456517D01*
X65640091Y-85456516D01*
X65638307Y-85448966D01*
X65639559Y-85448669D01*
X65635145Y-85386924D01*
X65639132Y-85373346D01*
X65639598Y-85371375D01*
X65645999Y-85311844D01*
X65646000Y-85311827D01*
X65646000Y-85264000D01*
X65608694Y-85264000D01*
X65541655Y-85244315D01*
X65509429Y-85214313D01*
X65503546Y-85206454D01*
X65503544Y-85206452D01*
X65503543Y-85206451D01*
X65388335Y-85120206D01*
X65388328Y-85120202D01*
X65253482Y-85069908D01*
X65253483Y-85069908D01*
X65193883Y-85063501D01*
X65193881Y-85063500D01*
X65193873Y-85063500D01*
X65193864Y-85063500D01*
X62848129Y-85063500D01*
X62848123Y-85063501D01*
X62788516Y-85069908D01*
X62653671Y-85120202D01*
X62653664Y-85120206D01*
X62538456Y-85206451D01*
X62538454Y-85206454D01*
X62532571Y-85214312D01*
X62476639Y-85256182D01*
X62433306Y-85264000D01*
X62396000Y-85264000D01*
X62396000Y-85311844D01*
X62402401Y-85371372D01*
X62404187Y-85378930D01*
X62402542Y-85379318D01*
X62406851Y-85439656D01*
X62401943Y-85456371D01*
X62401908Y-85456520D01*
X62395501Y-85516117D01*
X62395501Y-85516123D01*
X62395500Y-85516136D01*
X62395500Y-86111870D01*
X62395501Y-86111876D01*
X62401908Y-86171479D01*
X62403692Y-86179026D01*
X62402229Y-86179371D01*
X62406585Y-86240371D01*
X62402173Y-86255396D01*
X62401908Y-86256517D01*
X62395501Y-86316117D01*
X62395500Y-86316136D01*
X62395500Y-86911870D01*
X62395501Y-86911876D01*
X62401908Y-86971479D01*
X62403692Y-86979026D01*
X62402229Y-86979371D01*
X62406585Y-87040371D01*
X62402173Y-87055396D01*
X62401908Y-87056517D01*
X62395501Y-87116117D01*
X62395500Y-87116136D01*
X62395500Y-87711870D01*
X62395501Y-87711876D01*
X62401908Y-87771479D01*
X62403692Y-87779026D01*
X62402229Y-87779371D01*
X62406585Y-87840371D01*
X62402173Y-87855396D01*
X62401908Y-87856517D01*
X62395501Y-87916117D01*
X62395500Y-87916136D01*
X62395500Y-88511870D01*
X62395501Y-88511876D01*
X62401908Y-88571483D01*
X62452202Y-88706328D01*
X62452206Y-88706335D01*
X62538452Y-88821544D01*
X62538455Y-88821547D01*
X62653664Y-88907793D01*
X62653673Y-88907798D01*
X62698951Y-88924685D01*
X62725586Y-88934619D01*
X62781520Y-88976489D01*
X62805938Y-89041953D01*
X62791087Y-89110226D01*
X62755140Y-89151119D01*
X62641209Y-89233894D01*
X62490890Y-89384213D01*
X62365951Y-89556179D01*
X62269444Y-89745585D01*
X62203753Y-89947760D01*
X62170500Y-90157713D01*
X62170500Y-90370286D01*
X62203753Y-90580239D01*
X62269444Y-90782414D01*
X62365951Y-90971820D01*
X62490890Y-91143786D01*
X62641213Y-91294109D01*
X62813179Y-91419048D01*
X62813181Y-91419049D01*
X62813184Y-91419051D01*
X63002588Y-91515557D01*
X63204757Y-91581246D01*
X63414713Y-91614500D01*
X63414714Y-91614500D01*
X64627286Y-91614500D01*
X64627287Y-91614500D01*
X64837243Y-91581246D01*
X65039412Y-91515557D01*
X65228816Y-91419051D01*
X65281317Y-91380907D01*
X65400786Y-91294109D01*
X65400788Y-91294106D01*
X65400792Y-91294104D01*
X65551104Y-91143792D01*
X65551106Y-91143788D01*
X65551109Y-91143786D01*
X65676048Y-90971820D01*
X65676047Y-90971820D01*
X65676051Y-90971816D01*
X65772557Y-90782412D01*
X65838246Y-90580243D01*
X65871500Y-90370287D01*
X65871500Y-90157713D01*
X65838246Y-89947757D01*
X65772557Y-89745588D01*
X65676051Y-89556184D01*
X65676049Y-89556181D01*
X65676048Y-89556179D01*
X65551109Y-89384213D01*
X65400790Y-89233894D01*
X65400785Y-89233890D01*
X65286860Y-89151119D01*
X65244194Y-89095789D01*
X65238215Y-89026176D01*
X65270820Y-88964381D01*
X65316409Y-88934620D01*
X65374869Y-88912817D01*
X65418200Y-88905000D01*
X66791416Y-88905000D01*
X66858455Y-88924685D01*
X66879097Y-88941319D01*
X67278078Y-89340300D01*
X67311563Y-89401623D01*
X67314390Y-89426618D01*
X67346295Y-92329935D01*
X67327348Y-92397187D01*
X67275050Y-92443520D01*
X67220649Y-92455287D01*
X58382616Y-92337446D01*
X58315845Y-92316869D01*
X58270798Y-92263460D01*
X58260270Y-92213400D01*
X58260576Y-91594531D01*
X58280294Y-91527504D01*
X58333120Y-91481775D01*
X58402284Y-91471866D01*
X58440872Y-91484111D01*
X58502583Y-91515555D01*
X58502585Y-91515555D01*
X58502588Y-91515557D01*
X58704757Y-91581246D01*
X58914713Y-91614500D01*
X58914714Y-91614500D01*
X60127286Y-91614500D01*
X60127287Y-91614500D01*
X60337243Y-91581246D01*
X60539412Y-91515557D01*
X60728816Y-91419051D01*
X60781317Y-91380907D01*
X60900786Y-91294109D01*
X60900788Y-91294106D01*
X60900792Y-91294104D01*
X61051104Y-91143792D01*
X61051106Y-91143788D01*
X61051109Y-91143786D01*
X61176048Y-90971820D01*
X61176047Y-90971820D01*
X61176051Y-90971816D01*
X61272557Y-90782412D01*
X61338246Y-90580243D01*
X61371500Y-90370287D01*
X61371500Y-90157713D01*
X61338246Y-89947757D01*
X61272557Y-89745588D01*
X61176051Y-89556184D01*
X61176049Y-89556181D01*
X61176048Y-89556179D01*
X61051109Y-89384213D01*
X60900786Y-89233890D01*
X60728820Y-89108951D01*
X60539414Y-89012444D01*
X60539413Y-89012443D01*
X60539412Y-89012443D01*
X60337243Y-88946754D01*
X60337241Y-88946753D01*
X60337240Y-88946753D01*
X60175957Y-88921208D01*
X60127287Y-88913500D01*
X58914713Y-88913500D01*
X58866042Y-88921208D01*
X58704760Y-88946753D01*
X58502582Y-89012445D01*
X58442188Y-89043217D01*
X58373519Y-89056113D01*
X58308778Y-89029836D01*
X58268522Y-88972729D01*
X58261894Y-88932675D01*
X58264191Y-84296374D01*
X58283909Y-84229346D01*
X58336735Y-84183617D01*
X58405899Y-84173708D01*
X58444487Y-84185953D01*
X58502583Y-84215555D01*
X58502585Y-84215555D01*
X58502588Y-84215557D01*
X58704757Y-84281246D01*
X58914713Y-84314500D01*
X58914714Y-84314500D01*
X60127286Y-84314500D01*
X60127287Y-84314500D01*
X60337243Y-84281246D01*
X60539412Y-84215557D01*
X60728816Y-84119051D01*
X60777703Y-84083533D01*
X60900786Y-83994109D01*
X60900788Y-83994106D01*
X60900792Y-83994104D01*
X61051104Y-83843792D01*
X61051106Y-83843788D01*
X61051109Y-83843786D01*
X61176048Y-83671820D01*
X61176047Y-83671820D01*
X61176051Y-83671816D01*
X61272557Y-83482412D01*
X61338246Y-83280243D01*
X61371500Y-83070287D01*
X61371500Y-82857713D01*
X62170500Y-82857713D01*
X62170500Y-83070286D01*
X62203753Y-83280239D01*
X62269444Y-83482414D01*
X62365951Y-83671820D01*
X62490890Y-83843786D01*
X62641209Y-83994105D01*
X62641214Y-83994109D01*
X62755623Y-84077232D01*
X62798289Y-84132562D01*
X62804268Y-84202175D01*
X62771663Y-84263970D01*
X62726072Y-84293732D01*
X62653911Y-84320646D01*
X62653906Y-84320649D01*
X62538812Y-84406809D01*
X62538809Y-84406812D01*
X62452649Y-84521906D01*
X62452645Y-84521913D01*
X62402403Y-84656620D01*
X62402401Y-84656627D01*
X62396000Y-84716155D01*
X62396000Y-84764000D01*
X65646000Y-84764000D01*
X65646000Y-84716172D01*
X65645999Y-84716155D01*
X65639598Y-84656627D01*
X65639596Y-84656620D01*
X65589354Y-84521913D01*
X65589350Y-84521906D01*
X65503190Y-84406812D01*
X65503187Y-84406809D01*
X65388093Y-84320649D01*
X65388086Y-84320645D01*
X65315928Y-84293732D01*
X65259994Y-84251861D01*
X65235577Y-84186396D01*
X65250429Y-84118123D01*
X65286374Y-84077232D01*
X65400792Y-83994104D01*
X65551104Y-83843792D01*
X65551106Y-83843788D01*
X65551109Y-83843786D01*
X65676048Y-83671820D01*
X65676047Y-83671820D01*
X65676051Y-83671816D01*
X65772557Y-83482412D01*
X65838246Y-83280243D01*
X65871500Y-83070287D01*
X65871500Y-82857713D01*
X65838246Y-82647757D01*
X65772557Y-82445588D01*
X65676051Y-82256184D01*
X65676049Y-82256181D01*
X65676048Y-82256179D01*
X65551109Y-82084213D01*
X65400786Y-81933890D01*
X65228820Y-81808951D01*
X65039414Y-81712444D01*
X65039413Y-81712443D01*
X65039412Y-81712443D01*
X64837243Y-81646754D01*
X64837241Y-81646753D01*
X64837240Y-81646753D01*
X64675957Y-81621208D01*
X64627287Y-81613500D01*
X63414713Y-81613500D01*
X63366042Y-81621208D01*
X63204760Y-81646753D01*
X63002585Y-81712444D01*
X62813179Y-81808951D01*
X62641213Y-81933890D01*
X62490890Y-82084213D01*
X62365951Y-82256179D01*
X62269444Y-82445585D01*
X62203753Y-82647760D01*
X62170500Y-82857713D01*
X61371500Y-82857713D01*
X61338246Y-82647757D01*
X61272557Y-82445588D01*
X61176051Y-82256184D01*
X61176049Y-82256181D01*
X61176048Y-82256179D01*
X61051109Y-82084213D01*
X60900786Y-81933890D01*
X60728820Y-81808951D01*
X60539414Y-81712444D01*
X60539413Y-81712443D01*
X60539412Y-81712443D01*
X60337243Y-81646754D01*
X60337241Y-81646753D01*
X60337240Y-81646753D01*
X60175957Y-81621208D01*
X60127287Y-81613500D01*
X58914713Y-81613500D01*
X58866042Y-81621208D01*
X58704760Y-81646753D01*
X58502582Y-81712445D01*
X58445805Y-81741374D01*
X58377135Y-81754270D01*
X58312395Y-81727993D01*
X58272139Y-81670886D01*
X58265511Y-81630828D01*
X58265812Y-81023920D01*
X58285530Y-80956890D01*
X58338356Y-80911161D01*
X58389812Y-80899981D01*
X66970666Y-80899981D01*
X66984550Y-80900761D01*
G37*
G04 #@! TD.AperFunction*
G04 #@! TA.AperFunction,Conductor*
G36*
X75541202Y-66223328D02*
G01*
X75541203Y-66223329D01*
X75541204Y-66223331D01*
X75584329Y-66280938D01*
X75627454Y-66338547D01*
X75660309Y-66363141D01*
X75702181Y-66419074D01*
X75710000Y-66462409D01*
X75710000Y-66481000D01*
X75782828Y-66481000D01*
X75782839Y-66480999D01*
X75844395Y-66474380D01*
X75870909Y-66474380D01*
X75877514Y-66475090D01*
X75877517Y-66475091D01*
X75937127Y-66481500D01*
X76582872Y-66481499D01*
X76642483Y-66475091D01*
X76642486Y-66475089D01*
X76646744Y-66474632D01*
X76673254Y-66474632D01*
X76677514Y-66475089D01*
X76677517Y-66475091D01*
X76737127Y-66481500D01*
X77382872Y-66481499D01*
X77442483Y-66475091D01*
X77442486Y-66475089D01*
X77446744Y-66474632D01*
X77473254Y-66474632D01*
X77477514Y-66475089D01*
X77477517Y-66475091D01*
X77537127Y-66481500D01*
X78182872Y-66481499D01*
X78242483Y-66475091D01*
X78242486Y-66475089D01*
X78246744Y-66474632D01*
X78273254Y-66474632D01*
X78277514Y-66475089D01*
X78277517Y-66475091D01*
X78337127Y-66481500D01*
X78982872Y-66481499D01*
X79042483Y-66475091D01*
X79042486Y-66475089D01*
X79046744Y-66474632D01*
X79073254Y-66474632D01*
X79077514Y-66475089D01*
X79077517Y-66475091D01*
X79137127Y-66481500D01*
X79782872Y-66481499D01*
X79842483Y-66475091D01*
X79842486Y-66475089D01*
X79846744Y-66474632D01*
X79873254Y-66474632D01*
X79877514Y-66475089D01*
X79877517Y-66475091D01*
X79937127Y-66481500D01*
X80582872Y-66481499D01*
X80642483Y-66475091D01*
X80642486Y-66475089D01*
X80646744Y-66474632D01*
X80673254Y-66474632D01*
X80677514Y-66475089D01*
X80677517Y-66475091D01*
X80737127Y-66481500D01*
X81382872Y-66481499D01*
X81442483Y-66475091D01*
X81442486Y-66475089D01*
X81446744Y-66474632D01*
X81473254Y-66474632D01*
X81477514Y-66475089D01*
X81477517Y-66475091D01*
X81537127Y-66481500D01*
X82182872Y-66481499D01*
X82242483Y-66475091D01*
X82242486Y-66475089D01*
X82246744Y-66474632D01*
X82273254Y-66474632D01*
X82277514Y-66475089D01*
X82277517Y-66475091D01*
X82337127Y-66481500D01*
X82982872Y-66481499D01*
X83042483Y-66475091D01*
X83042486Y-66475089D01*
X83046744Y-66474632D01*
X83073254Y-66474632D01*
X83077514Y-66475089D01*
X83077517Y-66475091D01*
X83137127Y-66481500D01*
X83782872Y-66481499D01*
X83785500Y-66481499D01*
X83852539Y-66501183D01*
X83898294Y-66553987D01*
X83909500Y-66605499D01*
X83909500Y-67253870D01*
X83909501Y-67253876D01*
X83916619Y-67320092D01*
X83916619Y-67346599D01*
X83910000Y-67408169D01*
X83910000Y-67481000D01*
X83928591Y-67481000D01*
X83995630Y-67500685D01*
X84027855Y-67530686D01*
X84052454Y-67563546D01*
X84052455Y-67563546D01*
X84052456Y-67563548D01*
X84143540Y-67631734D01*
X84185411Y-67687668D01*
X84190395Y-67757359D01*
X84156909Y-67818682D01*
X84143540Y-67830266D01*
X84052456Y-67898451D01*
X84052454Y-67898454D01*
X84027856Y-67931312D01*
X83971924Y-67973182D01*
X83928591Y-67981000D01*
X83910000Y-67981000D01*
X83910000Y-68053844D01*
X83916619Y-68115398D01*
X83916620Y-68141909D01*
X83915909Y-68148514D01*
X83915909Y-68148517D01*
X83909500Y-68208127D01*
X83909500Y-68208134D01*
X83909500Y-68208135D01*
X83909500Y-68853870D01*
X83909501Y-68853879D01*
X83916367Y-68917751D01*
X83916367Y-68944257D01*
X83915909Y-68948516D01*
X83915909Y-68948517D01*
X83909500Y-69008127D01*
X83909500Y-69008129D01*
X83909500Y-69008133D01*
X83909500Y-69653870D01*
X83909501Y-69653879D01*
X83916367Y-69717751D01*
X83916367Y-69744257D01*
X83915909Y-69748516D01*
X83915909Y-69748517D01*
X83909500Y-69808127D01*
X83909500Y-69808129D01*
X83909500Y-69808133D01*
X83909500Y-70453870D01*
X83909501Y-70453879D01*
X83916367Y-70517751D01*
X83916367Y-70544257D01*
X83915909Y-70548516D01*
X83915909Y-70548517D01*
X83909500Y-70608127D01*
X83909500Y-70608129D01*
X83909500Y-70608133D01*
X83909500Y-71253870D01*
X83909501Y-71253879D01*
X83916367Y-71317751D01*
X83916367Y-71344257D01*
X83915909Y-71348516D01*
X83915909Y-71348517D01*
X83909500Y-71408127D01*
X83909500Y-71408129D01*
X83909500Y-71408133D01*
X83909500Y-72053870D01*
X83909501Y-72053879D01*
X83916367Y-72117751D01*
X83916367Y-72144257D01*
X83915909Y-72148516D01*
X83915909Y-72148517D01*
X83909500Y-72208127D01*
X83909500Y-72208132D01*
X83909500Y-72208133D01*
X83909500Y-72853870D01*
X83909501Y-72853879D01*
X83916367Y-72917751D01*
X83916367Y-72944257D01*
X83915909Y-72948516D01*
X83915909Y-72948517D01*
X83909500Y-73008127D01*
X83909500Y-73008129D01*
X83909500Y-73008133D01*
X83909500Y-73653870D01*
X83909501Y-73653876D01*
X83916619Y-73720092D01*
X83916619Y-73746599D01*
X83910000Y-73808169D01*
X83910000Y-73881000D01*
X83928591Y-73881000D01*
X83995630Y-73900685D01*
X84027855Y-73930686D01*
X84052454Y-73963546D01*
X84052455Y-73963546D01*
X84052456Y-73963548D01*
X84143540Y-74031734D01*
X84185411Y-74087668D01*
X84190395Y-74157359D01*
X84156909Y-74218682D01*
X84143540Y-74230266D01*
X84052456Y-74298451D01*
X84052454Y-74298454D01*
X84027856Y-74331312D01*
X83971924Y-74373182D01*
X83928591Y-74381000D01*
X83910000Y-74381000D01*
X83910000Y-74453844D01*
X83916619Y-74515398D01*
X83916620Y-74541909D01*
X83915909Y-74548514D01*
X83915909Y-74548517D01*
X83909500Y-74608127D01*
X83909500Y-74608134D01*
X83909500Y-74608135D01*
X83909500Y-75256500D01*
X83889815Y-75323539D01*
X83837011Y-75369294D01*
X83785500Y-75380500D01*
X83137129Y-75380500D01*
X83137120Y-75380501D01*
X83073248Y-75387367D01*
X83046742Y-75387367D01*
X83042483Y-75386909D01*
X82982873Y-75380500D01*
X82982864Y-75380500D01*
X82337129Y-75380500D01*
X82337120Y-75380501D01*
X82273248Y-75387367D01*
X82246742Y-75387367D01*
X82242483Y-75386909D01*
X82182873Y-75380500D01*
X82182864Y-75380500D01*
X81537129Y-75380500D01*
X81537120Y-75380501D01*
X81473248Y-75387367D01*
X81446742Y-75387367D01*
X81442483Y-75386909D01*
X81382873Y-75380500D01*
X81382864Y-75380500D01*
X80737129Y-75380500D01*
X80737125Y-75380501D01*
X80689160Y-75385657D01*
X80677517Y-75386909D01*
X80677516Y-75386909D01*
X80670904Y-75387620D01*
X80644393Y-75387619D01*
X80582842Y-75381000D01*
X80510000Y-75381000D01*
X80510000Y-75399590D01*
X80490315Y-75466629D01*
X80460313Y-75498856D01*
X80427451Y-75523456D01*
X80359266Y-75614540D01*
X80303332Y-75656411D01*
X80233641Y-75661395D01*
X80172318Y-75627909D01*
X80160734Y-75614540D01*
X80092548Y-75523456D01*
X80092546Y-75523455D01*
X80092546Y-75523454D01*
X80059686Y-75498855D01*
X80017817Y-75442921D01*
X80010000Y-75399590D01*
X80010000Y-75381000D01*
X79937166Y-75381000D01*
X79875595Y-75387619D01*
X79849088Y-75387619D01*
X79839818Y-75386622D01*
X79782873Y-75380500D01*
X79782865Y-75380500D01*
X79137129Y-75380500D01*
X79137120Y-75380501D01*
X79073248Y-75387367D01*
X79046742Y-75387367D01*
X79042483Y-75386909D01*
X78982873Y-75380500D01*
X78982864Y-75380500D01*
X78337129Y-75380500D01*
X78337120Y-75380501D01*
X78273248Y-75387367D01*
X78246742Y-75387367D01*
X78242483Y-75386909D01*
X78182873Y-75380500D01*
X78182864Y-75380500D01*
X77537129Y-75380500D01*
X77537120Y-75380501D01*
X77473248Y-75387367D01*
X77446742Y-75387367D01*
X77442483Y-75386909D01*
X77382873Y-75380500D01*
X77382864Y-75380500D01*
X76737129Y-75380500D01*
X76737120Y-75380501D01*
X76673248Y-75387367D01*
X76646742Y-75387367D01*
X76642483Y-75386909D01*
X76582873Y-75380500D01*
X76582864Y-75380500D01*
X75937129Y-75380500D01*
X75937120Y-75380501D01*
X75873248Y-75387367D01*
X75846742Y-75387367D01*
X75842483Y-75386909D01*
X75782873Y-75380500D01*
X75782866Y-75380500D01*
X75134499Y-75380500D01*
X75067460Y-75360815D01*
X75021705Y-75308011D01*
X75010499Y-75256500D01*
X75010499Y-75253882D01*
X75010500Y-75253873D01*
X75010499Y-74608128D01*
X75004091Y-74548517D01*
X75004089Y-74548513D01*
X75003632Y-74544255D01*
X75003632Y-74517745D01*
X75004089Y-74513486D01*
X75004091Y-74513483D01*
X75010500Y-74453873D01*
X75010499Y-73808128D01*
X75004091Y-73748517D01*
X75004089Y-73748513D01*
X75003632Y-73744255D01*
X75003632Y-73717745D01*
X75004089Y-73713486D01*
X75004091Y-73713483D01*
X75010500Y-73653873D01*
X75010499Y-73008128D01*
X75004091Y-72948517D01*
X75004090Y-72948516D01*
X75003380Y-72941904D01*
X75003381Y-72915393D01*
X75009999Y-72853842D01*
X75010000Y-72853827D01*
X75010000Y-72781000D01*
X74991409Y-72781000D01*
X74924370Y-72761315D01*
X74892144Y-72731313D01*
X74867546Y-72698454D01*
X74776457Y-72630265D01*
X74734588Y-72574333D01*
X74729604Y-72504641D01*
X74763089Y-72443318D01*
X74776452Y-72431738D01*
X74867546Y-72363546D01*
X74892143Y-72330687D01*
X74948076Y-72288818D01*
X74991409Y-72281000D01*
X75010000Y-72281000D01*
X75010000Y-72208172D01*
X75009999Y-72208160D01*
X75003380Y-72146604D01*
X75003380Y-72120090D01*
X75004090Y-72113485D01*
X75004091Y-72113483D01*
X75010500Y-72053873D01*
X75010499Y-71408128D01*
X75004091Y-71348517D01*
X75004089Y-71348513D01*
X75003632Y-71344255D01*
X75003632Y-71317745D01*
X75004089Y-71313486D01*
X75004091Y-71313483D01*
X75010500Y-71253873D01*
X75010499Y-70608128D01*
X75004091Y-70548517D01*
X75004089Y-70548513D01*
X75003632Y-70544255D01*
X75003632Y-70517745D01*
X75004089Y-70513486D01*
X75004091Y-70513483D01*
X75010500Y-70453873D01*
X75010499Y-69808128D01*
X75004091Y-69748517D01*
X75004089Y-69748513D01*
X75003632Y-69744255D01*
X75003632Y-69717745D01*
X75004089Y-69713486D01*
X75004091Y-69713483D01*
X75010500Y-69653873D01*
X75010499Y-69008128D01*
X75004091Y-68948517D01*
X75004089Y-68948513D01*
X75003632Y-68944255D01*
X75003632Y-68917745D01*
X75004089Y-68913486D01*
X75004091Y-68913483D01*
X75010500Y-68853873D01*
X75010499Y-68208128D01*
X75004091Y-68148517D01*
X75004089Y-68148513D01*
X75003632Y-68144255D01*
X75003632Y-68117745D01*
X75004089Y-68113486D01*
X75004091Y-68113483D01*
X75010500Y-68053873D01*
X75010499Y-67408128D01*
X75004091Y-67348517D01*
X75004089Y-67348513D01*
X75003632Y-67344255D01*
X75003632Y-67317745D01*
X75004089Y-67313486D01*
X75004091Y-67313483D01*
X75010500Y-67253873D01*
X75010499Y-66608128D01*
X75010499Y-66608127D01*
X75010499Y-66605000D01*
X75030183Y-66537961D01*
X75082987Y-66492206D01*
X75134499Y-66481000D01*
X75210000Y-66481000D01*
X75210000Y-66167000D01*
X75520193Y-66167000D01*
X75541202Y-66223328D01*
G37*
G04 #@! TD.AperFunction*
M02*
