G04 #@! TF.GenerationSoftware,KiCad,Pcbnew,8.0.2*
G04 #@! TF.CreationDate,2024-12-03T17:22:36-08:00*
G04 #@! TF.ProjectId,keypad-pcb,6b657970-6164-42d7-9063-622e6b696361,rev?*
G04 #@! TF.SameCoordinates,Original*
G04 #@! TF.FileFunction,Soldermask,Bot*
G04 #@! TF.FilePolarity,Negative*
%FSLAX46Y46*%
G04 Gerber Fmt 4.6, Leading zero omitted, Abs format (unit mm)*
G04 Created by KiCad (PCBNEW 8.0.2) date 2024-12-03 17:22:36*
%MOMM*%
%LPD*%
G01*
G04 APERTURE LIST*
G04 Aperture macros list*
%AMRoundRect*
0 Rectangle with rounded corners*
0 $1 Rounding radius*
0 $2 $3 $4 $5 $6 $7 $8 $9 X,Y pos of 4 corners*
0 Add a 4 corners polygon primitive as box body*
4,1,4,$2,$3,$4,$5,$6,$7,$8,$9,$2,$3,0*
0 Add four circle primitives for the rounded corners*
1,1,$1+$1,$2,$3*
1,1,$1+$1,$4,$5*
1,1,$1+$1,$6,$7*
1,1,$1+$1,$8,$9*
0 Add four rect primitives between the rounded corners*
20,1,$1+$1,$2,$3,$4,$5,0*
20,1,$1+$1,$4,$5,$6,$7,0*
20,1,$1+$1,$6,$7,$8,$9,0*
20,1,$1+$1,$8,$9,$2,$3,0*%
%AMHorizOval*
0 Thick line with rounded ends*
0 $1 width*
0 $2 $3 position (X,Y) of the first rounded end (center of the circle)*
0 $4 $5 position (X,Y) of the second rounded end (center of the circle)*
0 Add line between two ends*
20,1,$1,$2,$3,$4,$5,0*
0 Add two circle primitives to create the rounded ends*
1,1,$1,$2,$3*
1,1,$1,$4,$5*%
G04 Aperture macros list end*
%ADD10C,1.750000*%
%ADD11C,3.987800*%
%ADD12HorizOval,2.250000X0.655001X0.730000X-0.655001X-0.730000X0*%
%ADD13C,2.250000*%
%ADD14HorizOval,2.250000X0.020000X0.290000X-0.020000X-0.290000X0*%
%ADD15RoundRect,0.225000X0.375000X-0.225000X0.375000X0.225000X-0.375000X0.225000X-0.375000X-0.225000X0*%
%ADD16RoundRect,0.250000X-0.475000X0.250000X-0.475000X-0.250000X0.475000X-0.250000X0.475000X0.250000X0*%
%ADD17RoundRect,0.250000X-0.375000X-0.625000X0.375000X-0.625000X0.375000X0.625000X-0.375000X0.625000X0*%
%ADD18RoundRect,0.250000X-0.262500X-0.450000X0.262500X-0.450000X0.262500X0.450000X-0.262500X0.450000X0*%
%ADD19RoundRect,0.250000X0.250000X0.475000X-0.250000X0.475000X-0.250000X-0.475000X0.250000X-0.475000X0*%
%ADD20RoundRect,0.250000X-0.250000X-0.475000X0.250000X-0.475000X0.250000X0.475000X-0.250000X0.475000X0*%
%ADD21RoundRect,0.250000X0.262500X0.450000X-0.262500X0.450000X-0.262500X-0.450000X0.262500X-0.450000X0*%
%ADD22R,0.550000X1.500000*%
%ADD23R,1.500000X0.550000*%
%ADD24R,1.200000X1.400000*%
%ADD25R,2.250000X0.500000*%
%ADD26O,2.700000X1.700000*%
%ADD27R,1.100000X1.800000*%
%ADD28RoundRect,0.250000X0.475000X-0.250000X0.475000X0.250000X-0.475000X0.250000X-0.475000X-0.250000X0*%
G04 APERTURE END LIST*
D10*
X62237883Y-48262198D03*
D11*
X67317883Y-48262198D03*
D10*
X72397883Y-48262198D03*
D12*
X64162884Y-44992198D03*
D13*
X64817883Y-44262198D03*
D14*
X69837883Y-43472198D03*
D13*
X69857883Y-43182198D03*
D10*
X81280000Y-48260000D03*
D11*
X86360000Y-48260000D03*
D10*
X91440000Y-48260000D03*
D12*
X83205001Y-44990000D03*
D13*
X83860000Y-44260000D03*
D14*
X88880000Y-43470000D03*
D13*
X88900000Y-43180000D03*
D15*
X93756584Y-50068115D03*
X93756584Y-46768115D03*
D16*
X90551000Y-65852000D03*
X90551000Y-67752000D03*
D17*
X74927000Y-92075000D03*
X77727000Y-92075000D03*
D18*
X83542500Y-60833000D03*
X85367500Y-60833000D03*
D19*
X74710000Y-59539000D03*
X72810000Y-59539000D03*
D18*
X70207500Y-88392000D03*
X72032500Y-88392000D03*
D20*
X60261000Y-65978000D03*
X62161000Y-65978000D03*
X75843000Y-83123000D03*
X77743000Y-83123000D03*
D21*
X69958500Y-78805000D03*
X68133500Y-78805000D03*
D22*
X83460000Y-76631000D03*
X82660000Y-76631000D03*
X81860000Y-76631000D03*
X81060000Y-76631000D03*
X80260000Y-76631000D03*
X79460000Y-76631000D03*
X78660000Y-76631000D03*
X77860000Y-76631000D03*
X77060000Y-76631000D03*
X76260000Y-76631000D03*
X75460000Y-76631000D03*
D23*
X73760000Y-74931000D03*
X73760000Y-74131000D03*
X73760000Y-73331000D03*
X73760000Y-72531000D03*
X73760000Y-71731000D03*
X73760000Y-70931000D03*
X73760000Y-70131000D03*
X73760000Y-69331000D03*
X73760000Y-68531000D03*
X73760000Y-67731000D03*
X73760000Y-66931000D03*
D22*
X75460000Y-65231000D03*
X76260000Y-65231000D03*
X77060000Y-65231000D03*
X77860000Y-65231000D03*
X78660000Y-65231000D03*
X79460000Y-65231000D03*
X80260000Y-65231000D03*
X81060000Y-65231000D03*
X81860000Y-65231000D03*
X82660000Y-65231000D03*
X83460000Y-65231000D03*
D23*
X85160000Y-66931000D03*
X85160000Y-67731000D03*
X85160000Y-68531000D03*
X85160000Y-69331000D03*
X85160000Y-70131000D03*
X85160000Y-70931000D03*
X85160000Y-71731000D03*
X85160000Y-72531000D03*
X85160000Y-73331000D03*
X85160000Y-74131000D03*
X85160000Y-74931000D03*
D15*
X74776000Y-49968479D03*
X74776000Y-46668479D03*
D24*
X62061000Y-69577000D03*
X62061000Y-71777000D03*
X60361000Y-71777000D03*
X60361000Y-69577000D03*
D21*
X70207500Y-85979000D03*
X72032500Y-85979000D03*
D20*
X84860000Y-82742000D03*
X86760000Y-82742000D03*
D25*
X64021000Y-85014000D03*
X64021000Y-85814000D03*
X64021000Y-86614000D03*
X64021000Y-87414000D03*
X64021000Y-88214000D03*
D26*
X59521000Y-82964000D03*
X59521000Y-90264000D03*
X64021000Y-82964000D03*
X64021000Y-90264000D03*
D19*
X62161000Y-75630000D03*
X60261000Y-75630000D03*
D27*
X86796000Y-85546000D03*
X90496000Y-91746000D03*
X90496000Y-85546000D03*
X86796000Y-91746000D03*
D28*
X68157000Y-76199000D03*
X68157000Y-74299000D03*
M02*
