G04 #@! TF.GenerationSoftware,KiCad,Pcbnew,8.0.2*
G04 #@! TF.CreationDate,2024-12-03T18:18:40-08:00*
G04 #@! TF.ProjectId,keypad-pcb,6b657970-6164-42d7-9063-622e6b696361,rev?*
G04 #@! TF.SameCoordinates,Original*
G04 #@! TF.FileFunction,Copper,L1,Top*
G04 #@! TF.FilePolarity,Positive*
%FSLAX46Y46*%
G04 Gerber Fmt 4.6, Leading zero omitted, Abs format (unit mm)*
G04 Created by KiCad (PCBNEW 8.0.2) date 2024-12-03 18:18:40*
%MOMM*%
%LPD*%
G01*
G04 APERTURE LIST*
G04 Aperture macros list*
%AMHorizOval*
0 Thick line with rounded ends*
0 $1 width*
0 $2 $3 position (X,Y) of the first rounded end (center of the circle)*
0 $4 $5 position (X,Y) of the second rounded end (center of the circle)*
0 Add line between two ends*
20,1,$1,$2,$3,$4,$5,0*
0 Add two circle primitives to create the rounded ends*
1,1,$1,$2,$3*
1,1,$1,$4,$5*%
G04 Aperture macros list end*
G04 #@! TA.AperFunction,ComponentPad*
%ADD10HorizOval,2.250000X0.655001X0.730000X-0.655001X-0.730000X0*%
G04 #@! TD*
G04 #@! TA.AperFunction,ComponentPad*
%ADD11C,2.250000*%
G04 #@! TD*
G04 #@! TA.AperFunction,ComponentPad*
%ADD12HorizOval,2.250000X0.020000X0.290000X-0.020000X-0.290000X0*%
G04 #@! TD*
G04 #@! TA.AperFunction,ComponentPad*
%ADD13O,1.700000X2.700000*%
G04 #@! TD*
G04 #@! TA.AperFunction,ViaPad*
%ADD14C,0.600000*%
G04 #@! TD*
G04 #@! TA.AperFunction,Conductor*
%ADD15C,0.381000*%
G04 #@! TD*
G04 #@! TA.AperFunction,Conductor*
%ADD16C,0.254000*%
G04 #@! TD*
G04 APERTURE END LIST*
D10*
X71354001Y-60547000D03*
D11*
X72009000Y-59817000D03*
D12*
X77029000Y-59027000D03*
D11*
X77049000Y-58737000D03*
D10*
X90396118Y-60544802D03*
D11*
X91051117Y-59814802D03*
D12*
X96071117Y-59024802D03*
D11*
X96091117Y-58734802D03*
D13*
X62427000Y-55992000D03*
X55127000Y-55992000D03*
X62427000Y-60492000D03*
X55127000Y-60492000D03*
D14*
X67945000Y-67945000D03*
X66688000Y-79087000D03*
X87897000Y-81026000D03*
X85979000Y-89242000D03*
X67300000Y-86731000D03*
X77534500Y-73597500D03*
X82042000Y-74422000D03*
X84836000Y-69342000D03*
X64124000Y-75277000D03*
X58801000Y-83058000D03*
X82677000Y-73533000D03*
X76263500Y-73977500D03*
D15*
X85979000Y-89242000D02*
X69049000Y-89242000D01*
X66688000Y-84013000D02*
X67300000Y-84625000D01*
X66688000Y-79087000D02*
X66688000Y-84013000D01*
X86907000Y-89242000D02*
X87897000Y-88252000D01*
X85979000Y-89242000D02*
X86907000Y-89242000D01*
X66688000Y-69202000D02*
X66688000Y-79087000D01*
X87897000Y-88252000D02*
X87897000Y-81026000D01*
X67945000Y-67945000D02*
X66688000Y-69202000D01*
X69049000Y-89242000D02*
X67300000Y-87493000D01*
X67300000Y-84625000D02*
X67300000Y-86731000D01*
X67300000Y-87493000D02*
X67300000Y-86731000D01*
D16*
X80899000Y-73279000D02*
X77853000Y-73279000D01*
X82042000Y-74422000D02*
X80899000Y-73279000D01*
X77853000Y-73279000D02*
X77534500Y-73597500D01*
X90077883Y-61310172D02*
X89816000Y-61048289D01*
X86868000Y-66040000D02*
X88900000Y-66040000D01*
X90551000Y-62084685D02*
X89741117Y-61274802D01*
X88900000Y-66040000D02*
X90551000Y-64389000D01*
X90551000Y-64389000D02*
X90551000Y-62084685D01*
X84836000Y-69342000D02*
X84836000Y-68072000D01*
X84836000Y-68072000D02*
X86868000Y-66040000D01*
X61502000Y-75277000D02*
X64124000Y-75277000D01*
X59309000Y-82550000D02*
X59309000Y-77470000D01*
X58801000Y-83058000D02*
X59309000Y-82550000D01*
X59309000Y-77470000D02*
X61502000Y-75277000D01*
X81788000Y-72644000D02*
X77597000Y-72644000D01*
X82677000Y-73533000D02*
X81788000Y-72644000D01*
X77597000Y-72644000D02*
X76263500Y-73977500D01*
M02*
