M48
; DRILL file {KiCad 8.0.2} date 2024-12-03T17:23:36-0800
; FORMAT={-:-/ absolute / inch / decimal}
; #@! TF.CreationDate,2024-12-03T17:23:36-08:00
; #@! TF.GenerationSoftware,Kicad,Pcbnew,8.0.2
; #@! TF.FileFunction,Plated,1,2,PTH
FMAT,2
INCH
; #@! TA.AperFunction,Plated,PTH,ViaDrill
T1C0.0118
; #@! TA.AperFunction,Plated,PTH,ComponentDrill
T2C0.0276
; #@! TA.AperFunction,Plated,PTH,ComponentDrill
T3C0.0579
%
G90
G05
T1
X2.6394Y-3.1536
X2.89Y-3.28
X3.0039Y-2.3441
X3.04Y-3.1791
X3.25Y-2.11
X3.3409Y-3.155
X3.485Y-3.695
X3.65Y-2.48
T3
X2.5003Y-1.8001
X2.5519Y-1.7426
X2.7487Y-1.7229
X2.7503Y-1.7001
X3.25Y-1.8
X3.3016Y-1.7425
X3.4984Y-1.7228
X3.5Y-1.7
T2
G00X2.3197Y-3.2663
M15
G01X2.367Y-3.2663
M16
G05
G00X2.3197Y-3.5537
M15
G01X2.367Y-3.5537
M16
G05
G00X2.4969Y-3.2663
M15
G01X2.5441Y-3.2663
M16
G05
G00X2.4969Y-3.5537
M15
G01X2.5441Y-3.5537
M16
G05
M30
