G04 #@! TF.GenerationSoftware,KiCad,Pcbnew,8.0.2*
G04 #@! TF.CreationDate,2024-12-03T18:18:40-08:00*
G04 #@! TF.ProjectId,keypad-pcb,6b657970-6164-42d7-9063-622e6b696361,rev?*
G04 #@! TF.SameCoordinates,Original*
G04 #@! TF.FileFunction,Soldermask,Bot*
G04 #@! TF.FilePolarity,Negative*
%FSLAX46Y46*%
G04 Gerber Fmt 4.6, Leading zero omitted, Abs format (unit mm)*
G04 Created by KiCad (PCBNEW 8.0.2) date 2024-12-03 18:18:40*
%MOMM*%
%LPD*%
G01*
G04 APERTURE LIST*
G04 Aperture macros list*
%AMRoundRect*
0 Rectangle with rounded corners*
0 $1 Rounding radius*
0 $2 $3 $4 $5 $6 $7 $8 $9 X,Y pos of 4 corners*
0 Add a 4 corners polygon primitive as box body*
4,1,4,$2,$3,$4,$5,$6,$7,$8,$9,$2,$3,0*
0 Add four circle primitives for the rounded corners*
1,1,$1+$1,$2,$3*
1,1,$1+$1,$4,$5*
1,1,$1+$1,$6,$7*
1,1,$1+$1,$8,$9*
0 Add four rect primitives between the rounded corners*
20,1,$1+$1,$2,$3,$4,$5,0*
20,1,$1+$1,$4,$5,$6,$7,0*
20,1,$1+$1,$6,$7,$8,$9,0*
20,1,$1+$1,$8,$9,$2,$3,0*%
%AMHorizOval*
0 Thick line with rounded ends*
0 $1 width*
0 $2 $3 position (X,Y) of the first rounded end (center of the circle)*
0 $4 $5 position (X,Y) of the second rounded end (center of the circle)*
0 Add line between two ends*
20,1,$1,$2,$3,$4,$5,0*
0 Add two circle primitives to create the rounded ends*
1,1,$1,$2,$3*
1,1,$1,$4,$5*%
G04 Aperture macros list end*
%ADD10C,1.750000*%
%ADD11C,3.987800*%
%ADD12HorizOval,2.250000X0.655001X0.730000X-0.655001X-0.730000X0*%
%ADD13C,2.250000*%
%ADD14HorizOval,2.250000X0.020000X0.290000X-0.020000X-0.290000X0*%
%ADD15RoundRect,0.225000X-0.225000X-0.375000X0.225000X-0.375000X0.225000X0.375000X-0.225000X0.375000X0*%
%ADD16RoundRect,0.250000X0.250000X0.475000X-0.250000X0.475000X-0.250000X-0.475000X0.250000X-0.475000X0*%
%ADD17RoundRect,0.250000X-0.625000X0.375000X-0.625000X-0.375000X0.625000X-0.375000X0.625000X0.375000X0*%
%ADD18RoundRect,0.250000X-0.450000X0.262500X-0.450000X-0.262500X0.450000X-0.262500X0.450000X0.262500X0*%
%ADD19RoundRect,0.250000X0.475000X-0.250000X0.475000X0.250000X-0.475000X0.250000X-0.475000X-0.250000X0*%
%ADD20RoundRect,0.250000X-0.475000X0.250000X-0.475000X-0.250000X0.475000X-0.250000X0.475000X0.250000X0*%
%ADD21RoundRect,0.250000X0.450000X-0.262500X0.450000X0.262500X-0.450000X0.262500X-0.450000X-0.262500X0*%
%ADD22R,1.500000X0.550000*%
%ADD23R,0.550000X1.500000*%
%ADD24RoundRect,0.225000X0.375000X-0.225000X0.375000X0.225000X-0.375000X0.225000X-0.375000X-0.225000X0*%
%ADD25R,1.200000X1.400000*%
%ADD26R,0.500000X2.250000*%
%ADD27O,1.700000X2.700000*%
%ADD28RoundRect,0.250000X-0.250000X-0.475000X0.250000X-0.475000X0.250000X0.475000X-0.250000X0.475000X0*%
%ADD29R,1.800000X1.100000*%
G04 APERTURE END LIST*
D10*
X69429000Y-63817000D03*
D11*
X74509000Y-63817000D03*
D10*
X79589000Y-63817000D03*
D12*
X71354001Y-60547000D03*
D13*
X72009000Y-59817000D03*
D14*
X77029000Y-59027000D03*
D13*
X77049000Y-58737000D03*
D10*
X88471117Y-63814802D03*
D11*
X93551117Y-63814802D03*
D10*
X98631117Y-63814802D03*
D12*
X90396118Y-60544802D03*
D13*
X91051117Y-59814802D03*
D14*
X96071117Y-59024802D03*
D13*
X96091117Y-58734802D03*
D15*
X89028000Y-67945000D03*
X92328000Y-67945000D03*
D16*
X81468000Y-89535000D03*
X79568000Y-89535000D03*
D17*
X53316000Y-71398000D03*
X53316000Y-74198000D03*
D18*
X86741000Y-85386500D03*
X86741000Y-87211500D03*
D19*
X85979000Y-79436000D03*
X85979000Y-77536000D03*
D18*
X56999000Y-66678500D03*
X56999000Y-68503500D03*
D16*
X97785000Y-87150500D03*
X95885000Y-87150500D03*
D20*
X64313000Y-77714000D03*
X64313000Y-79614000D03*
D21*
X68834000Y-72032500D03*
X68834000Y-70207500D03*
D22*
X70805000Y-85331000D03*
X70805000Y-84531000D03*
X70805000Y-83731000D03*
X70805000Y-82931000D03*
X70805000Y-82131000D03*
X70805000Y-81331000D03*
X70805000Y-80531000D03*
X70805000Y-79731000D03*
X70805000Y-78931000D03*
X70805000Y-78131000D03*
X70805000Y-77331000D03*
D23*
X72505000Y-75631000D03*
X73305000Y-75631000D03*
X74105000Y-75631000D03*
X74905000Y-75631000D03*
X75705000Y-75631000D03*
X76505000Y-75631000D03*
X77305000Y-75631000D03*
X78105000Y-75631000D03*
X78905000Y-75631000D03*
X79705000Y-75631000D03*
X80505000Y-75631000D03*
D22*
X82205000Y-77331000D03*
X82205000Y-78131000D03*
X82205000Y-78931000D03*
X82205000Y-79731000D03*
X82205000Y-80531000D03*
X82205000Y-81331000D03*
X82205000Y-82131000D03*
X82205000Y-82931000D03*
X82205000Y-83731000D03*
X82205000Y-84531000D03*
X82205000Y-85331000D03*
D23*
X80505000Y-87031000D03*
X79705000Y-87031000D03*
X78905000Y-87031000D03*
X78105000Y-87031000D03*
X77305000Y-87031000D03*
X76505000Y-87031000D03*
X75705000Y-87031000D03*
X74905000Y-87031000D03*
X74105000Y-87031000D03*
X73305000Y-87031000D03*
X72505000Y-87031000D03*
D24*
X81967117Y-65523281D03*
X81967117Y-62223281D03*
D25*
X95985000Y-83551500D03*
X95985000Y-81351500D03*
X97685000Y-81351500D03*
X97685000Y-83551500D03*
D21*
X59412000Y-68503500D03*
X59412000Y-66678500D03*
D20*
X64694000Y-86731000D03*
X64694000Y-88631000D03*
D26*
X60377000Y-60492000D03*
X59577000Y-60492000D03*
X58777000Y-60492000D03*
X57977000Y-60492000D03*
X57177000Y-60492000D03*
D27*
X62427000Y-55992000D03*
X55127000Y-55992000D03*
X62427000Y-60492000D03*
X55127000Y-60492000D03*
D28*
X95885000Y-77498500D03*
X97785000Y-77498500D03*
D29*
X60123000Y-84383000D03*
X53923000Y-88083000D03*
X60123000Y-88083000D03*
X53923000Y-84383000D03*
D28*
X73218000Y-71755000D03*
X75118000Y-71755000D03*
M02*
