G04 #@! TF.GenerationSoftware,KiCad,Pcbnew,8.0.2*
G04 #@! TF.CreationDate,2024-12-03T17:22:36-08:00*
G04 #@! TF.ProjectId,keypad-pcb,6b657970-6164-42d7-9063-622e6b696361,rev?*
G04 #@! TF.SameCoordinates,Original*
G04 #@! TF.FileFunction,Copper,L1,Top*
G04 #@! TF.FilePolarity,Positive*
%FSLAX46Y46*%
G04 Gerber Fmt 4.6, Leading zero omitted, Abs format (unit mm)*
G04 Created by KiCad (PCBNEW 8.0.2) date 2024-12-03 17:22:36*
%MOMM*%
%LPD*%
G01*
G04 APERTURE LIST*
G04 Aperture macros list*
%AMHorizOval*
0 Thick line with rounded ends*
0 $1 width*
0 $2 $3 position (X,Y) of the first rounded end (center of the circle)*
0 $4 $5 position (X,Y) of the second rounded end (center of the circle)*
0 Add line between two ends*
20,1,$1,$2,$3,$4,$5,0*
0 Add two circle primitives to create the rounded ends*
1,1,$1,$2,$3*
1,1,$1,$4,$5*%
G04 Aperture macros list end*
G04 #@! TA.AperFunction,ComponentPad*
%ADD10HorizOval,2.250000X0.655001X0.730000X-0.655001X-0.730000X0*%
G04 #@! TD*
G04 #@! TA.AperFunction,ComponentPad*
%ADD11C,2.250000*%
G04 #@! TD*
G04 #@! TA.AperFunction,ComponentPad*
%ADD12HorizOval,2.250000X0.020000X0.290000X-0.020000X-0.290000X0*%
G04 #@! TD*
G04 #@! TA.AperFunction,ComponentPad*
%ADD13O,2.700000X1.700000*%
G04 #@! TD*
G04 #@! TA.AperFunction,ViaPad*
%ADD14C,0.600000*%
G04 #@! TD*
G04 #@! TA.AperFunction,Conductor*
%ADD15C,0.254000*%
G04 #@! TD*
G04 #@! TA.AperFunction,Conductor*
%ADD16C,0.381000*%
G04 #@! TD*
G04 APERTURE END LIST*
D10*
X64162884Y-44992198D03*
D11*
X64817883Y-44262198D03*
D12*
X69837883Y-43472198D03*
D11*
X69857883Y-43182198D03*
D10*
X83205001Y-44990000D03*
D11*
X83860000Y-44260000D03*
D12*
X88880000Y-43470000D03*
D11*
X88900000Y-43180000D03*
D13*
X59521000Y-82964000D03*
X59521000Y-90264000D03*
X64021000Y-82964000D03*
X64021000Y-90264000D03*
D14*
X77216000Y-80748000D03*
X67040500Y-80101500D03*
X76300000Y-59539000D03*
X92710000Y-62992000D03*
X84860000Y-80136000D03*
X82550000Y-53594000D03*
X73406000Y-83312000D03*
X88519000Y-93853000D03*
D15*
X83947000Y-93853000D02*
X88519000Y-93853000D01*
X73406000Y-83312000D02*
X83947000Y-93853000D01*
D16*
X77216000Y-80748000D02*
X82142000Y-80748000D01*
X67687000Y-80748000D02*
X77216000Y-80748000D01*
X86638000Y-80136000D02*
X84860000Y-80136000D01*
X82142000Y-80748000D02*
X82754000Y-80136000D01*
X92710000Y-62992000D02*
X92710000Y-62738000D01*
X92710000Y-62992000D02*
X92710000Y-74064000D01*
X92710000Y-74064000D02*
X86638000Y-80136000D01*
X89511000Y-59539000D02*
X76300000Y-59539000D01*
X82754000Y-80136000D02*
X84860000Y-80136000D01*
X67040500Y-80101500D02*
X67687000Y-80748000D01*
X92710000Y-62738000D02*
X89511000Y-59539000D01*
D15*
X82550000Y-53594000D02*
X82550000Y-45720000D01*
M02*
